<?xml version="1.0" standalone="no"?>
<!DOCTYPE svg PUBLIC "-//W3C//DTD SVG 1.1//EN" "http://www.w3.org/Graphics/SVG/1.1/DTD/svg11.dtd" >
<svg xmlns="http://www.w3.org/2000/svg">
<metadata></metadata>
<defs>
<font id="atc_overlookmedium" horiz-adv-x="1224" >
<font-face units-per-em="2048" ascent="1638" descent="-410" />
<missing-glyph horiz-adv-x="604" />
<glyph horiz-adv-x="2048" />
<glyph horiz-adv-x="2048" />
<glyph unicode="&#xd;" horiz-adv-x="2048" />
<glyph unicode=" "  horiz-adv-x="604" />
<glyph unicode="&#x09;" horiz-adv-x="604" />
<glyph unicode="&#xa0;" horiz-adv-x="604" />
<glyph unicode="!" horiz-adv-x="567" d="M153 111q0 54 38.5 91.5t92.5 37.5t91.5 -37.5t37.5 -91.5t-37.5 -92.5t-91.5 -38.5t-92.5 38.5t-38.5 92.5zM188 449v1026h193v-1026h-193z" />
<glyph unicode="&#x22;" horiz-adv-x="768" d="M112 1638h215l-35 -399h-145zM469 1638h215l-35 -399h-146z" />
<glyph unicode="#" horiz-adv-x="1318" d="M78 350v170h200l56 402h-191v170h216l49 342h200l-51 -342h306l48 342h199l-48 -342h179v-170h-206l-55 -402h196v-170h-222l-49 -350h-198l48 350h-303l-49 -350h-198l48 350h-175zM477 518h305l56 406h-305z" />
<glyph unicode="$" horiz-adv-x="1185" d="M92 120l107 184q67 -53 153.5 -86.5t171 -39t156 13.5t116 75.5t44.5 143.5q0 41 -18.5 77t-45 60.5t-71.5 49t-80.5 39t-89.5 33.5q-88 32 -145 56.5t-114.5 60t-90 73.5t-52.5 90.5t-20 118.5q0 170 96 264.5t256 120.5v184h217v-179q177 -17 336 -85l-80 -194 q-64 35 -142 59.5t-156.5 30t-144 -9t-106.5 -61.5t-41 -122q0 -28 10.5 -52t33.5 -44.5t44.5 -35.5t59 -30.5t61 -24.5t64.5 -23q92 -31 157.5 -60t124.5 -67.5t95 -82.5t56.5 -103.5t20.5 -132.5q0 -104 -31.5 -185.5t-87 -133t-124 -82t-150.5 -42.5v-183h-217v180 q-123 13 -226 53.5t-147 91.5z" />
<glyph unicode="%" horiz-adv-x="1736" d="M96 1108q0 169 84 268t242 99q161 0 241 -99.5t80 -267.5q0 -167 -83.5 -267t-241.5 -100q-155 0 -238.5 101t-83.5 266zM217 0l1053 1434h223l-1051 -1434h-225zM251 1108q0 -224 171 -224q87 0 127 56t40 168q0 224 -171 224q-167 0 -167 -224zM993 350q0 169 84 268 t242 99q161 0 241 -99.5t80 -267.5q0 -167 -83.5 -266.5t-241.5 -99.5q-155 0 -238.5 100.5t-83.5 265.5zM1148 350q0 -224 171 -224q87 0 127 56t40 168q0 224 -171 224q-167 0 -167 -224z" />
<glyph unicode="&#x26;" horiz-adv-x="1449" d="M75 367q0 313 328 444q-126 156 -126 293q0 74 26 140t75 118t128 82.5t178 30.5q177 0 275.5 -102t93.5 -253q-7 -253 -307 -376l269 -265q86 154 106 328h207q-13 -116 -60.5 -247t-107.5 -224l233 -230l-147 -155l-221 222q-206 -214 -465 -214q-207 0 -346 119 t-139 289zM304 396q0 -40 16 -80t46.5 -75t84 -57t120.5 -22q172 0 315 152l-345 341q-237 -87 -237 -259zM503 1104q0 -95 109 -223q114 41 171.5 97.5t61.5 141.5q3 68 -43.5 120t-122.5 52q-81 0 -128.5 -57.5t-47.5 -130.5z" />
<glyph unicode="'" horiz-adv-x="417" d="M112 1536h215l-35 -399h-145z" />
<glyph unicode="(" horiz-adv-x="880" d="M125 567q0 295 145 523.5t422 384.5l94 -151q-227 -146 -334.5 -327t-107.5 -430t107.5 -430.5t334.5 -327.5l-94 -149q-277 156 -422 384.5t-145 522.5z" />
<glyph unicode=")" horiz-adv-x="880" d="M94 -191q227 146 335 327.5t108 430.5t-108 430t-335 327l94 151q277 -156 422.5 -385t145.5 -523t-145.5 -522.5t-422.5 -384.5z" />
<glyph unicode="*" horiz-adv-x="827" d="M106 1032l209 92l-209 97l72 122l182 -126l-18 221h143l-18 -221l182 126l72 -122l-209 -97l209 -92l-72 -129l-182 131l18 -221h-143l18 221l-182 -131z" />
<glyph unicode="+" horiz-adv-x="1300" d="M138 535v200h412v412h200v-412h412v-200h-412v-412h-200v412h-412z" />
<glyph unicode="," horiz-adv-x="452" d="M64 111q0 54 38.5 91t92.5 37t91.5 -37t37.5 -91q0 -64 -123 -267h-65l43 138q-48 5 -81.5 41.5t-33.5 87.5z" />
<glyph unicode="-" horiz-adv-x="724" d="M106 403v201h512v-201h-512z" />
<glyph unicode="." horiz-adv-x="518" d="M131 108q0 57 36.5 92.5t91.5 35.5t91.5 -35.5t36.5 -92.5q0 -49 -38 -88.5t-90 -39.5t-90 39.5t-38 88.5z" />
<glyph unicode="/" horiz-adv-x="999" d="M-57 -348l869 1982h215l-868 -1982h-216z" />
<glyph unicode="0" horiz-adv-x="1392" d="M107 717q0 348 154 547.5t434 199.5q126 0 227.5 -41.5t168.5 -112t112 -167.5t64.5 -202.5t19.5 -223.5q0 -347 -156 -547.5t-436 -200.5q-128 0 -230 43t-167.5 114t-109.5 169.5t-62.5 202.5t-18.5 219zM349 717q0 -131 17.5 -226t57 -165t107 -105t164.5 -35 q189 0 269 133.5t80 397.5q0 265 -79.5 398t-269.5 133q-97 0 -164.5 -35t-107 -105t-57 -165t-17.5 -226z" />
<glyph unicode="1" horiz-adv-x="731" d="M44 1321l503 143v-1464h-235v1197l-208 -60z" />
<glyph unicode="2" horiz-adv-x="1218" d="M95 0q0 81 14.5 152t36 124.5t59 103.5t72 84.5t87 71.5t91.5 60t97 54q127 71 183.5 112t93.5 102q29 44 39 98t-2.5 106.5t-43 96.5t-88.5 71t-134 27q-189 0 -357 -129l-87 183q113 77 214.5 112t247.5 35q213 0 348.5 -121.5t140.5 -308.5q4 -140 -54.5 -246 t-152.5 -174q-62 -44 -157.5 -96t-161 -87t-130.5 -92.5t-98 -125.5h730v-213h-988z" />
<glyph unicode="3" horiz-adv-x="1220" d="M73 133l107 186q63 -60 172 -97.5t205 -37.5q70 0 122 10t97 36t67.5 76t20.5 124q-4 115 -76.5 178.5t-195.5 63.5h-223v198h224q60 0 105.5 17.5t70 47.5t36.5 63.5t13 70.5q1 56 -19.5 96t-58 61t-81 29.5t-95.5 6.5q-171 -3 -327 -87l-86 197q229 92 444 92 q221 0 343 -110.5t122 -280.5q0 -105 -59.5 -190.5t-147.5 -110.5q108 -30 181 -129t73 -227q0 -215 -138.5 -331t-375.5 -116q-153 0 -310 52.5t-210 111.5z" />
<glyph unicode="4" horiz-adv-x="1302" d="M63 360q146 191 230.5 418t84.5 414h216q0 -154 -45.5 -323.5t-122.5 -303.5h364v889h234v-889h186v-205h-186v-360h-234v360h-727z" />
<glyph unicode="5" horiz-adv-x="1236" d="M90 103l82 196q163 -121 356 -126q351 -9 351 316q0 142 -94.5 210t-262.5 68q-156 0 -358 -58v725h917v-209h-695v-303q82 19 165.5 23.5t167 -7t155.5 -45t128 -85t88 -133.5t32 -185q0 -104 -32.5 -191t-87.5 -147t-127.5 -101.5t-152.5 -61t-163 -19.5 q-271 0 -469 133z" />
<glyph unicode="6" horiz-adv-x="1306" d="M115 676q0 185 45.5 335t126 249t191 152.5t241.5 53.5q135 0 234.5 -49t197.5 -160l-132 -153q-128 162 -304 162q-111 0 -188.5 -55t-127.5 -174q-39 -101 -50 -245q55 75 153.5 116.5t206.5 41.5q223 0 352 -136t129 -343q0 -110 -42.5 -205.5t-114 -159.5 t-164.5 -100.5t-193 -36.5q-279 0 -420 180.5t-141 526.5zM348 541q14 -192 100 -279t230 -83q51 1 97 18.5t86 51.5t63.5 92t23.5 132q0 148 -68.5 222.5t-198.5 74.5t-214 -62t-119 -167z" />
<glyph unicode="7" horiz-adv-x="1220" d="M134 1225v209h992q-39 -323 -186 -541q-35 -52 -83.5 -110t-87.5 -103t-79.5 -99.5t-73.5 -122t-55 -147.5q-35 -128 -35 -311h-246q0 135 24 251.5t72.5 215t101 175t128.5 163.5q110 129 165 220.5t78 199.5h-715z" />
<glyph unicode="8" horiz-adv-x="1269" d="M93 416q0 129 76 227.5t193 128.5q-96 25 -157.5 109.5t-61.5 191.5q0 84 29.5 151.5t78 111.5t113.5 73.5t132.5 42t139.5 12.5q100 0 187 -24t156 -71t109 -123t40 -173q0 -107 -62 -191.5t-158 -109.5q117 -30 193 -128.5t76 -227.5q0 -114 -41 -200.5t-115.5 -140 t-171 -80t-213.5 -26.5q-81 0 -153.5 11.5t-146 42.5t-125.5 79.5t-85 129t-33 184.5zM334 422q0 -235 302 -244q300 9 300 244q0 119 -76.5 182.5t-223.5 63.5q-151 0 -226.5 -70t-75.5 -176zM379 1068q0 -94 65.5 -146t189.5 -52q130 0 193.5 57.5t63.5 140.5 q0 55 -21.5 94.5t-59 61t-80.5 31t-94 10.5q-51 -1 -94 -10.5t-81.5 -31t-60 -61t-21.5 -94.5z" />
<glyph unicode="9" horiz-adv-x="1306" d="M104 965q0 147 73 263t189.5 177t251.5 61q279 0 420 -180t141 -526q0 -368 -168.5 -579.5t-435.5 -211.5q-135 0 -234.5 49t-197.5 160l132 154q128 -162 305 -162q111 0 188 54.5t127 174.5q39 101 50 245q-55 -75 -153.5 -117t-206.5 -42q-112 0 -204 37.5t-152 103 t-92.5 152.5t-32.5 187zM347 963q0 -148 68.5 -222.5t198.5 -74.5t213.5 62t118.5 167q-14 192 -100 279t-230 83q-51 -1 -97 -18.5t-85.5 -51.5t-63 -92t-23.5 -132z" />
<glyph unicode=":" horiz-adv-x="538" d="M140 111q0 54 38.5 91.5t92.5 37.5t91.5 -37.5t37.5 -91.5t-37.5 -92.5t-91.5 -38.5t-92.5 38.5t-38.5 92.5zM140 915q0 54 38.5 91.5t92.5 37.5t91.5 -37t37.5 -92q0 -54 -37.5 -92.5t-91.5 -38.5t-92.5 38.5t-38.5 92.5z" />
<glyph unicode=";" horiz-adv-x="473" d="M74 111q0 54 38.5 91t92.5 37t91.5 -37t37.5 -91q0 -64 -123 -267h-65l43 138q-48 5 -81.5 41.5t-33.5 87.5zM74 915q0 54 38.5 91.5t92.5 37.5t91.5 -37t37.5 -92q0 -54 -37.5 -92.5t-91.5 -38.5t-92.5 38.5t-38.5 92.5z" />
<glyph unicode="&#x3c;" horiz-adv-x="1400" d="M132 637l1088 469v-201l-641 -262l641 -268v-230z" />
<glyph unicode="=" horiz-adv-x="1318" d="M147 350v201h1024v-201h-1024zM147 760v201h1024v-201h-1024z" />
<glyph unicode="&#x3e;" horiz-adv-x="1400" d="M180 145v230l641 268l-639 262v201l1086 -469z" />
<glyph unicode="?" horiz-adv-x="1003" d="M43 1368q193 96 437 97q212 0 328 -108t120 -282q0 -87 -34 -159.5t-89 -118t-120.5 -72t-133.5 -29.5v-250h-229v389q170 0 272 59.5t102 172.5q0 98 -59.5 151t-178.5 53q-190 0 -337 -92zM301 111q0 54 39 91.5t93 37.5t91.5 -37.5t37.5 -91.5t-37.5 -92.5 t-91.5 -38.5t-93 38.5t-39 92.5z" />
<glyph unicode="@" horiz-adv-x="1990" d="M100 582q0 181 70 346t189.5 286t286 193t351.5 72q184 0 350.5 -67t285 -178t188 -259.5t69.5 -306.5q0 -178 -48.5 -305.5t-156.5 -201t-270 -73.5q-106 0 -170.5 38.5t-85.5 99.5q-162 -126 -338 -126q-73 0 -134 18.5t-103.5 51t-73.5 77.5t-44.5 98.5t-17.5 113 t9 121.5q16 96 59.5 181t109 153t160 107.5t203.5 39.5q167 0 277 -119l14 80h213q-11 -66 -32 -184q-61 -347 -66 -441q-6 -120 39 -155q31 -23 96 -23q110 0 179 120.5t69 324.5q0 133 -60 261t-162.5 226.5t-249.5 158.5t-309 60q-220 0 -400.5 -106.5t-282 -287 t-101.5 -394.5q0 -216 101.5 -395t286 -284.5t413.5 -105.5q140 0 252.5 32.5t232.5 100.5l57 -88q-252 -153 -542 -153q-192 0 -363 71t-291 191.5t-190 285t-70 345.5zM689.5 466q5.5 -56 23 -99.5t59 -70.5t101.5 -27q84 0 161 37.5t135 96.5l58 324q-31 77 -94 120 t-150 43q-117 0 -190 -90t-96 -220q-13 -58 -7.5 -114z" />
<glyph unicode="A" horiz-adv-x="1492" d="M52 0l694 1475l695 -1475h-248l-135 295h-625l-135 -295h-246zM525 496h442l-221 483z" />
<glyph unicode="B" horiz-adv-x="1333" d="M173 0v1434h509q223 0 350 -96.5t127 -268.5q0 -255 -230 -319q145 -25 228.5 -108.5t83.5 -235.5q0 -200 -132.5 -303t-371.5 -103h-564zM411 210h260q163 0 246.5 45.5t83.5 156.5q0 64 -30.5 109t-87.5 68.5t-123.5 33.5t-151.5 10h-197v-423zM411 841h167 q153 0 247.5 47t94.5 148q0 187 -299 187h-210v-382z" />
<glyph unicode="C" horiz-adv-x="1472" d="M114 717q0 175 50.5 316t142.5 235.5t220.5 145t283.5 50.5q176 0 331.5 -73.5t255.5 -214.5l-177 -144q-62 94 -177.5 155t-230.5 61q-226 0 -339 -141t-113 -390q0 -247 114 -389t338 -142q109 0 227.5 63t180.5 153l177 -140q-103 -143 -259 -218t-328 -75 q-143 0 -261 41t-197.5 111t-134 166.5t-79.5 204t-25 225.5z" />
<glyph unicode="D" horiz-adv-x="1521" d="M173 0v1434h494q180 0 322.5 -55.5t233 -153.5t137.5 -227.5t47 -282.5q0 -176 -57 -314t-157.5 -224.5t-234 -131.5t-291.5 -45h-494zM411 216h256q493 0 493 499q0 502 -493 502h-256v-1001z" />
<glyph unicode="E" horiz-adv-x="1253" d="M173 0v1434h975v-213h-742v-381h684v-209h-684v-418h742v-213h-975z" />
<glyph unicode="F" horiz-adv-x="1226" d="M173 0v1434h969v-213h-736v-381h678v-209h-678v-631h-233z" />
<glyph unicode="G" horiz-adv-x="1536" d="M114 717q0 173 56 315.5t151.5 236t221 144.5t266.5 51q386 0 593 -288l-168 -130q-66 95 -176 152.5t-246 57.5q-207 0 -331.5 -148t-124.5 -391q0 -241 125 -390t328 -149q234 0 360 145v285h-315v201h548v-547q-107 -148 -252 -220.5t-341 -72.5q-165 0 -299.5 62 t-219.5 166.5t-130.5 238t-45.5 281.5z" />
<glyph unicode="H" horiz-adv-x="1531" d="M172 0v1434h234v-611h720v611h234v-1434h-234v614h-720v-614h-234z" />
<glyph unicode="I" horiz-adv-x="606" d="M186 0v1434h233v-1434h-233z" />
<glyph unicode="J" horiz-adv-x="1036" d="M32 135l123 178q84 -133 258 -133q127 0 182 55.5t55 198.5v1000h234v-1026q1 -220 -113.5 -329.5t-343.5 -109.5q-257 0 -395 166z" />
<glyph unicode="K" horiz-adv-x="1357" d="M173 0v1434h233v-699l565 699h271l-567 -668l661 -766h-295l-506 600l-129 -151v-449h-233z" />
<glyph unicode="L" horiz-adv-x="1216" d="M173 0v1434h233v-1225h736v-209h-969z" />
<glyph unicode="M" horiz-adv-x="1765" d="M172 0v1479l711 -690l710 690v-1479h-233v962l-477 -468l-477 468v-962h-234z" />
<glyph unicode="N" horiz-adv-x="1519" d="M172 0v1479l942 -967v922h234v-1479l-942 960v-915h-234z" />
<glyph unicode="O" horiz-adv-x="1660" d="M114 717q0 150 46.5 283.5t134.5 237.5t226.5 165t309.5 61t309.5 -61t226 -165t134 -237.5t46.5 -283.5q0 -175 -57 -318t-155 -236t-227.5 -143.5t-276.5 -50.5q-150 0 -280.5 51t-227.5 144.5t-153 236t-56 316.5zM358 717q0 -254 123 -394.5t350 -140.5t350 140.5 t123 394.5q0 256 -123 395t-350 139t-350 -139t-123 -395z" />
<glyph unicode="P" horiz-adv-x="1218" d="M172 0v1434h377q156 0 273 -36t188.5 -103t107 -157t35.5 -202q0 -232 -139 -349.5t-375 -117.5h-233v-469h-234zM406 674h223q161 0 226 64.5t65 202.5q0 66 -17.5 114.5t-61 89.5t-128 62.5t-207.5 21.5h-100v-555z" />
<glyph unicode="Q" horiz-adv-x="1662" d="M114 717q0 150 46.5 283.5t134.5 237.5t226.5 165t309.5 61t309.5 -61t226.5 -165t134.5 -237.5t46.5 -283.5q0 -205 -75.5 -362t-208.5 -253l125 -219l-193 -106l-127 228q-113 -36 -238 -36q-150 0 -280.5 51t-227.5 144.5t-153 236t-56 316.5zM358 717 q0 -254 123 -394.5t350 -140.5t350 140.5t123 394.5q0 256 -123 395t-350 139t-350 -139t-123 -395z" />
<glyph unicode="R" horiz-adv-x="1265" d="M172 0v1434h397q278 0 431 -131.5t153 -374.5q0 -309 -244 -431l285 -497h-266l-249 436q-54 -4 -81 -4h-192v-432h-234zM406 637h120q108 0 178.5 13t121 45.5t72.5 90t22 145.5q0 164 -99.5 231t-294.5 67h-120v-592z" />
<glyph unicode="S" horiz-adv-x="1167" d="M82 120l106 184q67 -53 153.5 -86.5t170.5 -39.5q19 -1 38 -1q62 0 118 15q72 19 116.5 75.5t44.5 143.5q0 41 -18.5 77t-45 60.5t-71.5 49t-80.5 39t-89.5 33.5q-88 32 -145 56.5t-114.5 60t-90 73.5t-52.5 90.5t-20 118.5q0 108 41.5 188.5t112.5 124.5t162 66 q72 17 152 17h13q14 0 28 -1q102 -6 203 -28.5t194 -61.5l-80 -194q-64 35 -142 59.5t-156 30.5q-22 2 -43 1q-53 -1 -101 -11q-66 -14 -107 -61t-41 -122q0 -33 17.5 -62t40.5 -48.5t65.5 -40.5t71 -31.5t77.5 -27.5q92 -31 157.5 -60t125 -67.5t95 -82.5t56.5 -103.5 t21 -132.5q0 -111 -36 -196t-95.5 -135t-137.5 -80q-80 -31 -164 -37q-36 -3 -72 -3q-50 0 -98 5q-86 8 -160 30t-132.5 51.5t-87.5 63.5z" />
<glyph unicode="T" horiz-adv-x="1245" d="M75 1225v209h1096v-209h-432v-1225h-234v1225h-430z" />
<glyph unicode="U" horiz-adv-x="1480" d="M153 618v816h234v-791q0 -237 81.5 -350.5t270.5 -113.5q192 0 274 113t82 351v791h234v-813q0 -313 -149 -482.5t-441 -169.5q-291 0 -438.5 168.5t-147.5 480.5z" />
<glyph unicode="V" horiz-adv-x="1484" d="M52 1434h248l442 -1001l443 1001h247l-690 -1499z" />
<glyph unicode="W" horiz-adv-x="2148" d="M60 1434h252l358 -934l406 958l403 -958l358 934h252l-598 -1500l-415 991l-418 -991z" />
<glyph unicode="X" horiz-adv-x="1507" d="M62 0l549 735l-518 699h268l393 -537l393 537h269l-521 -697l551 -737h-268l-424 576l-424 -576h-268z" />
<glyph unicode="Y" horiz-adv-x="1388" d="M29 1434h256l409 -621l410 621h256l-549 -828v-606h-233v606z" />
<glyph unicode="Z" horiz-adv-x="1515" d="M99 0l884 1215h-749v219h1184l-882 -1212h828v-222h-1265z" />
<glyph unicode="[" horiz-adv-x="901" d="M172 -348v1823h631v-181h-412v-1462h412v-180h-631z" />
<glyph unicode="\" horiz-adv-x="1011" d="M-26 1634h219l868 -1982h-219z" />
<glyph unicode="]" horiz-adv-x="901" d="M98 -168h412v1462h-412v181h631v-1823h-631v180z" />
<glyph unicode="^" horiz-adv-x="974" d="M109 1010l378 469l379 -469h-213l-166 218l-190 -218h-188z" />
<glyph unicode="_" horiz-adv-x="1302" d="M-4 -152h1311v-163h-1311v163z" />
<glyph unicode="`" horiz-adv-x="477" d="M0 1638h231l246 -297h-174z" />
<glyph unicode="a" horiz-adv-x="1097" d="M76 323q0 69 20 129t61 111.5t114.5 81.5t170.5 30q141 0 297 -55v19q0 233 -174 233q-163 0 -316 -111l-89 160q77 53 203.5 91t240.5 38q178 0 269.5 -98.5t91.5 -253.5v-699h-197q-24 56 -29 110q-48 -62 -125.5 -103.5t-171.5 -41.5q-117 0 -202 52t-124.5 132 t-39.5 175zM307 343q0 -103 41.5 -156t136.5 -53q65 0 133.5 39.5t120.5 103.5v191q-138 58 -254 58q-88 0 -133 -48.5t-45 -134.5z" />
<glyph unicode="b" horiz-adv-x="1243" d="M144 0v1475h229v-584q141 156 328 156q110 0 196.5 -41t141 -114t82.5 -171t28 -215q0 -118 -28 -216.5t-82.5 -171.5t-141 -114t-196.5 -41q-186 0 -328 151q-4 -56 -26 -114h-203zM373 332q44 -90 120.5 -140t172.5 -50q82 0 136.5 48.5t77.5 127.5t23 188t-23 188 t-77.5 127.5t-136.5 48.5q-96 0 -172.5 -50t-120.5 -140v-348z" />
<glyph unicode="c" horiz-adv-x="1044" d="M86 514q0 261 132 406t392 145q96 0 204.5 -36.5t166.5 -94.5l-77 -161q-51 44 -135.5 76t-170.5 32q-131 0 -205 -94t-74 -273t74 -273t205 -94q86 0 170.5 32t135.5 76l77 -161q-58 -58 -166.5 -94.5t-204.5 -36.5q-260 0 -392 145t-132 406z" />
<glyph unicode="d" horiz-adv-x="1243" d="M95 506q0 117 28 215t82.5 171t141 114t196.5 41q187 0 328 -156v584h229v-1475h-203q-21 56 -25 114q-142 -151 -329 -151q-110 0 -196.5 41t-141 114t-82.5 171.5t-28 216.5zM341 506q0 -168 58.5 -266t178.5 -98q96 0 172.5 50t120.5 140v348q-44 90 -120.5 140 t-172.5 50q-120 0 -178.5 -98t-58.5 -266z" />
<glyph unicode="e" horiz-adv-x="1136" d="M86 506q0 248 136 394.5t349 146.5q137 0 232.5 -46t148.5 -134.5t76 -201t23 -262.5h-734q16 -121 83 -191.5t182 -70.5q130 0 292 93l78 -160q-69 -48 -166 -79.5t-186 -31.5q-106 0 -193 30.5t-146 82t-99 122t-58 147.5t-18 161zM313 559h527q-6 150 -66 232.5 t-201 82.5q-125 0 -188.5 -85.5t-71.5 -229.5z" />
<glyph unicode="f" horiz-adv-x="737" d="M66 840v184h172v18v24q0 94 7 162q8 76 29.5 133.5t55.5 89t90 45.5q42 12 94 12q16 0 32 -2q72 -4 172 -25v-211q-40 10 -67 16.5t-53 9t-42.5 3.5t-31.5 -7t-23 -14.5t-15.5 -27t-10 -35.5t-5 -50t-2.5 -61.5v-77.5v-2h250v-184h-250v-840h-230v840h-172z" />
<glyph unicode="g" horiz-adv-x="1243" d="M95 518q0 118 28 216.5t82.5 171.5t141 114t196.5 41q186 0 328 -151q4 56 26 114h203v-950q0 -267 -131 -403t-383 -136q-120 0 -247.5 37.5t-186.5 93.5l77 167q64 -50 159.5 -84t205.5 -34q125 0 201 75t76 214v129q-141 -156 -328 -156q-110 0 -196.5 41t-141 114 t-82.5 171t-28 215zM341 518q0 -168 58.5 -266t178.5 -98q96 0 172.5 50t120.5 140v348q-44 90 -120.5 140t-172.5 50q-120 0 -178.5 -98t-58.5 -266z" />
<glyph unicode="h" d="M144 0v1475h229v-584q64 70 164.5 115t202.5 45q171 0 260.5 -103t89.5 -270v-678h-229v610q0 99 -31 160q-32 60 -84 78q-32 11 -67 11q-23 0 -47 -4q-64 -11 -131.5 -51.5t-127.5 -100.5v-703h-229z" />
<glyph unicode="i" horiz-adv-x="575" d="M152 1357q0 56 40 95t96 39t95 -39t39 -95t-39 -96t-95 -40t-96 40t-40 96zM172 0v1024h229v-1024h-229z" />
<glyph unicode="j" horiz-adv-x="628" d="M-42 -246q75 -19 112 -28q25 -5 49 -5q12 0 25 1q35 5 46.5 15.5t21.5 51t11 81.5t1 128v27v999h227v-1024q0 -117 -8.5 -197t-31.5 -140t-58 -92t-92 -45q-42 -10 -91 -10q-19 0 -38 1q-72 5 -174 26v211zM205 1357q0 56 40 95t96 39t95 -39t39 -95t-39 -96t-95 -40 t-96 40t-40 96z" />
<glyph unicode="k" horiz-adv-x="1091" d="M144 0v1475h229v-937l383 486h250l-379 -463l442 -561h-272l-299 403l-125 -153v-250h-229z" />
<glyph unicode="l" horiz-adv-x="534" d="M154 0v1475h227v-1475h-227z" />
<glyph unicode="m" horiz-adv-x="1746" d="M144 0v1024h198q17 -33 26 -129q150 156 327 156q202 0 266 -157q151 157 347 157q305 0 305 -373v-678h-229v627q0 88 -7.5 131t-37.5 71q-27 29 -81 29q-32 0 -75 -10q-113 -28 -183 -100v-748h-230v627q0 86 -8 130t-37 72q-23 25 -69 28h-14q-40 0 -82 -13 q-50 -16 -101.5 -49.5t-85.5 -77.5v-717h-229z" />
<glyph unicode="n" d="M144 0v1024h198q17 -33 27 -137q64 71 166 117.5t205 46.5q171 0 260.5 -103t89.5 -270v-678h-229v610q0 99 -31 160q-32 60 -84 78q-32 11 -67 11q-23 0 -47 -4q-64 -11 -131.5 -51.5t-127.5 -100.5v-703h-229z" />
<glyph unicode="o" horiz-adv-x="1181" d="M86 506q0 256 139.5 398.5t366.5 142.5q241 0 372.5 -148t131.5 -393q0 -246 -132 -394.5t-372 -148.5q-242 0 -374 148.5t-132 394.5zM320 506q0 -107 28.5 -189t91 -132.5t152.5 -50.5q132 0 200.5 104t68.5 268q0 163 -68.5 264.5t-200.5 101.5q-134 0 -203 -101.5 t-69 -264.5z" />
<glyph unicode="p" horiz-adv-x="1243" d="M144 -410v1434h203q21 -56 25 -114q142 151 329 151q110 0 196.5 -41t141 -114t82.5 -171.5t28 -216.5q0 -117 -28 -215t-82.5 -171t-141 -114t-196.5 -41q-187 0 -328 156v-543h-229zM373 344q44 -90 120.5 -140t172.5 -50q120 0 178.5 98t58.5 266t-58.5 266t-178.5 98 q-96 0 -172.5 -50t-120.5 -140v-348z" />
<glyph unicode="q" horiz-adv-x="1243" d="M95 518q0 118 28 216.5t82.5 171.5t141 114t196.5 41q187 0 329 -151q4 58 25 114h203v-1434h-229v543q-141 -156 -328 -156q-110 0 -196.5 41t-141 114t-82.5 171t-28 215zM341 518q0 -168 58.5 -266t178.5 -98q96 0 172.5 50t120.5 140v348q-44 90 -120.5 140 t-172.5 50q-120 0 -178.5 -98t-58.5 -266z" />
<glyph unicode="r" horiz-adv-x="817" d="M144 0v1024h198q15 -36 23 -112q134 131 256 132q72 0 141 -47l-63 -190q-53 40 -115 40q-21 0 -44 -5q-88 -18 -167 -110v-732h-229z" />
<glyph unicode="s" horiz-adv-x="937" d="M54 125l102 148q51 -60 124 -92.5t150 -32.5q81 0 137 41.5t56 113.5q0 68 -62 108.5t-185 73.5q-79 22 -129.5 42.5t-93.5 51.5t-62.5 74t-19.5 103q0 137 101 215t258 78q93 0 193.5 -27t173.5 -70l-67 -154q-143 87 -277 87q-68 0 -116.5 -28t-48.5 -86 q0 -26 14 -45.5t46.5 -35t62.5 -25t85 -24.5q180 -50 264 -121t84 -203q0 -85 -33.5 -153t-90 -109t-125.5 -62.5t-144 -21.5q-137 0 -239.5 45.5t-157.5 108.5z" />
<glyph unicode="t" horiz-adv-x="802" d="M66 840v184h172v451h229v-451h250v-184h-250v-390q0 -62 0.5 -95.5t4.5 -71t10 -53.5t19.5 -33t29.5 -19.5t45 -2.5t60.5 7t80.5 20v-208q-99 -20 -169 -25q-20 -1 -38 -1q-47 0 -87 8q-56 12 -89.5 42.5t-56 87.5t-31 133t-8.5 187v414h-172z" />
<glyph unicode="u" d="M134 346v678h229v-610q0 -99 31 -160q32 -60 84 -78q32 -11 67 -11q23 0 47 4q64 11 131.5 51.5t127.5 100.5v703h229v-1024h-199q-16 31 -26 137q-64 -71 -166 -117.5t-205 -46.5q-171 0 -260.5 103t-89.5 270z" />
<glyph unicode="v" horiz-adv-x="1083" d="M47 1024h245l264 -631l259 631h222l-486 -1090z" />
<glyph unicode="w" horiz-adv-x="1681" d="M54 1024h237l272 -613l278 638l277 -638l273 613h236l-497 -1090l-289 643l-289 -643z" />
<glyph unicode="x" horiz-adv-x="1093" d="M52 2l371 512l-371 512h246l248 -344l250 344h246l-371 -512l371 -512h-246l-251 341l-247 -341h-246z" />
<glyph unicode="y" horiz-adv-x="1163" d="M60 1024h244l279 -754l309 754h217l-473 -1120q-102 -252 -228 -322q-60 -34 -137 -34q-85 0 -192 42l64 189q64 -32 109 -36h11q40 0 73 25q38 29 67 82.5t65 149.5z" />
<glyph unicode="z" horiz-adv-x="1060" d="M86 0l534 842h-450v182h805l-531 -842h469v-182h-827z" />
<glyph unicode="{" horiz-adv-x="948" d="M94 483v189h33q130 0 186 72t56 202q0 158 2 184q11 139 88 217q102 101 356 148l39 -163q-69 -18 -116 -34.5t-77.5 -40.5t-47 -42t-24 -55.5t-9 -62.5t-1.5 -81v-2v-5q0 -53 -0.5 -79.5t-4.5 -73.5t-11 -74t-22 -63.5t-36.5 -59.5t-54 -45t-75.5 -36q50 -16 86.5 -40.5 t58 -60.5t34.5 -65.5t18 -80.5t6 -79t1 -86v-25q0 -116 13 -157q22 -67 105 -108q56 -27 157 -53l-39 -163q-95 17 -167 41.5t-119 53.5t-80 64t-48 73.5t-24 81t-8.5 88t0.5 93.5v54q0 130 -56 202t-186 72h-33z" />
<glyph unicode="|" horiz-adv-x="651" d="M231 -348v1986h189v-1986h-189z" />
<glyph unicode="}" horiz-adv-x="948" d="M94 -177q69 18 116 34.5t77.5 40.5t47 42t24 55.5t9 62.5t1.5 81v2q0 151 9 207q26 150 147 210q22 11 48 20q-43 14 -75.5 36t-54 45t-36.5 59.5t-22 63.5t-11 74t-4.5 73.5t-0.5 79.5v5q0 116 -13 157q-22 67 -105 108q-56 27 -157 53l39 163q83 -15 148.5 -36 t111.5 -45t80 -53t53 -60.5t31.5 -67t16 -73.5t5.5 -79t0 -84v-51q0 -130 56 -202t186 -72h33v-189h-33q-130 0 -186 -72t-56 -202q0 -158 -1 -171q-8 -142 -80 -220q-101 -109 -365 -158z" />
<glyph unicode="~" horiz-adv-x="1452" d="M117 602q34 62 72.5 105.5t73 69.5t82.5 36.5t81.5 13.5t90.5 -7t90 -18.5t98 -27.5q19 -5 28 -8q96 -28 151 -42.5t106.5 -20t76 -2.5t54 23t46.5 42t49 68l120 -73q-35 -67 -70.5 -114t-67.5 -76.5t-71 -44t-73 -19t-81 2.5t-87.5 17t-100.5 27q-54 15 -83 23 q-20 6 -58 16q-50 14 -73 20t-61 14.5t-56.5 9.5t-47 0.5t-45.5 -8.5t-39.5 -20.5t-42 -32.5t-40.5 -47z" />
<glyph unicode="&#xa1;" horiz-adv-x="559" d="M150 915q0 54 37.5 93t91.5 39q58 0 94.5 -37t36.5 -95q0 -54 -38.5 -91.5t-92.5 -37.5t-91.5 37.5t-37.5 91.5zM182 -410v988h193v-988h-193z" />
<glyph unicode="&#xa2;" horiz-adv-x="1071" d="M98 514q0 221 95 360t284 177v184h217v-175q87 -12 169.5 -45.5t129.5 -80.5l-77 -161q-51 44 -135.5 76t-170.5 32q-131 0 -205 -94t-74 -273t74 -273t205 -94q86 0 170.5 32t135.5 76l77 -161q-47 -47 -129.5 -80.5t-169.5 -45.5v-173h-217v182q-189 38 -284 177 t-95 360z" />
<glyph unicode="&#xa3;" horiz-adv-x="1191" d="M125 0v209q68 0 122 61t54 152v211h-176v209h176v233q0 93 29.5 166t79 117.5t115 73.5t136.5 38.5t143.5 6.5t137 -17.5t116.5 -36.5l-71 -196q-23 17 -65 30t-93 19t-104 -3t-96.5 -31.5t-71 -70.5t-27.5 -116v-213h242v-209h-242v-187q0 -147 -78 -237h647v-209h-974z " />
<glyph unicode="&#xa5;" horiz-adv-x="1286" d="M34 1434h252l357 -560l356 560h252l-492 -766h265v-156h-265v-135h265v-156h-265v-221h-233v221h-272v156h272v135h-272v156h272z" />
<glyph unicode="&#xa6;" horiz-adv-x="651" d="M231 328h189v-676h-189v676zM231 963v675h189v-675h-189z" />
<glyph unicode="&#xa7;" horiz-adv-x="1212" d="M116 535q0 109 50 180.5t163 114.5q-91 51 -138.5 116.5t-47.5 157.5q0 123 57.5 206.5t150.5 120t211 43t238.5 -16.5t232.5 -68l-78 -186q-76 42 -173.5 66.5t-190 24t-155.5 -47.5t-63 -138q0 -27 11 -50.5t34 -42.5t46 -33.5t59 -29t60 -22.5t61 -20 q89 -28 149.5 -51t123 -57t98.5 -72t59 -92t23 -120q0 -108 -49.5 -180.5t-156.5 -115.5q88 -48 133.5 -113t45.5 -160q0 -123 -57.5 -206.5t-151 -120t-211.5 -43t-238.5 16.5t-232.5 68l79 184q59 -33 134.5 -57t154 -30t144 6.5t107.5 58t42 119.5q0 27 -11 50.5 t-34 42.5t-46 33.5t-59 29t-60 22.5t-61 20q-89 28 -149.5 51t-123 57t-98.5 72t-59 92t-23 120zM347 541q0 -67 53.5 -111t147.5 -78q138 -36 228 5.5t90 154.5q0 69 -57 113.5t-155 79.5q-60 17 -115 13.5t-98 -22t-68.5 -58.5t-25.5 -97z" />
<glyph unicode="&#xa8;" horiz-adv-x="690" d="M0 1534q0 54 38.5 91.5t93.5 37.5q54 0 91.5 -37.5t37.5 -91.5t-37.5 -92.5t-91.5 -38.5q-55 0 -93.5 38.5t-38.5 92.5zM430 1534q0 54 39 91.5t93 37.5q55 0 92 -37.5t37 -91.5t-37.5 -92.5t-91.5 -38.5t-93 38.5t-39 92.5z" />
<glyph unicode="&#xa9;" horiz-adv-x="1697" d="M107 715q0 149 58.5 286t157 237t237 160t291.5 60t290.5 -58.5t235.5 -157.5t155.5 -235.5t57.5 -287.5q0 -149 -58 -286t-157 -237.5t-237 -160.5t-291 -60q-204 0 -374.5 99.5t-268 269.5t-97.5 371zM224 715q0 -127 48 -242.5t130.5 -200t198.5 -134.5t246 -50 q175 0 319.5 85t225.5 229.5t81 316.5q0 170 -81 314t-224.5 228.5t-316.5 84.5q-175 0 -319.5 -85t-226 -229.5t-81.5 -316.5zM490 717q0 185 92.5 287t272.5 102q73 0 151.5 -26.5t118.5 -67.5l-52 -119q-38 30 -100.5 54.5t-119.5 24.5q-96 0 -147 -64.5t-51 -190.5 t51 -190.5t147 -64.5q57 0 120 24t100 54l52 -118q-40 -41 -118.5 -67.5t-151.5 -26.5q-180 0 -272.5 102t-92.5 287z" />
<glyph unicode="&#xab;" horiz-adv-x="1132" d="M86 510l338 461l158 -105l-238 -356l238 -363l-158 -104zM535 510l337 461l158 -105l-237 -356l237 -363l-158 -104z" />
<glyph unicode="&#xad;" horiz-adv-x="724" d="M106 403v201h512v-201h-512z" />
<glyph unicode="&#xae;" horiz-adv-x="776" d="M32 1116q0 147 104 253t252 106q150 0 253.5 -104.5t103.5 -252.5q0 -147 -104.5 -253.5t-252.5 -106.5q-150 0 -253 104.5t-103 253.5zM87 1116q0 -126 86.5 -215.5t214.5 -89.5q127 0 214 90t87 217q0 126 -86.5 214.5t-214.5 88.5q-127 0 -214 -89t-87 -216zM263 926 v385h113q81 0 125.5 -33t44.5 -96q0 -80 -70 -112l82 -144h-75l-72 128l-27 -1h-51v-127h-70zM333 1114h31q67 0 89.5 12.5t22.5 55.5q0 38 -26 52.5t-86 14.5h-31v-135z" />
<glyph unicode="&#xaf;" horiz-adv-x="743" d="M0 1487v151h743v-151h-743z" />
<glyph unicode="&#xb0;" horiz-adv-x="782" d="M133 1415q0 104 80 183t180 79q102 0 179 -78.5t77 -183.5t-77 -183.5t-179 -78.5q-106 0 -183 77.5t-77 184.5zM244 1415q0 -65 42.5 -108t106.5 -43t106.5 43t42.5 108t-42.5 108t-106.5 43t-106.5 -43t-42.5 -108z" />
<glyph unicode="&#xb1;" horiz-adv-x="1300" d="M138 0v201h1024v-201h-1024zM138 707v200h412v330h200v-330h412v-200h-412v-330h-200v330h-412z" />
<glyph unicode="&#xb4;" horiz-adv-x="481" d="M0 1341l246 297h235l-307 -297h-174z" />
<glyph unicode="&#xb6;" horiz-adv-x="1220" d="M82 942q0 136 67.5 247.5t196 178t295.5 66.5h408v-1434h-234v481h-174q-261 0 -410 119t-149 342z" />
<glyph unicode="&#xb7;" horiz-adv-x="522" d="M131 657q0 54 38.5 91.5t92.5 37.5t91.5 -37.5t37.5 -91.5t-37.5 -92.5t-91.5 -38.5t-92.5 38.5t-38.5 92.5z" />
<glyph unicode="&#xb8;" horiz-adv-x="430" d="M0 -373l43 108q77 -62 168 -63q120 -2 120 80q0 68 -72 68q-48 0 -75 -33l-82 41l64 172h106l-47 -113q27 21 70 21q64 0 99.5 -46t35.5 -112q0 -78 -57.5 -131t-161.5 -53q-60 0 -119.5 17.5t-91.5 43.5z" />
<glyph unicode="&#xbb;" horiz-adv-x="1132" d="M102 147l238 363l-238 356l158 105l338 -461l-338 -467zM551 147l237 363l-237 356l158 105l338 -461l-338 -467z" />
<glyph unicode="&#xbf;" horiz-adv-x="1003" d="M76 51q0 87 34 159.5t89 118.5t120.5 72.5t133.5 29.5v249h229v-388q-170 0 -272 -59.5t-102 -173.5q0 -98 60 -150.5t179 -52.5q189 0 336 92l78 -190q-191 -95 -436 -96q-213 0 -329 107.5t-120 281.5zM443 1016q0 54 37.5 92.5t91.5 38.5t92.5 -38.5t38.5 -92.5 t-38.5 -92t-92.5 -38t-91.5 38t-37.5 92z" />
<glyph unicode="&#xc0;" horiz-adv-x="1492" d="M52 0l694 1475l695 -1475h-248l-135 295h-625l-135 -295h-246zM349 1843h231l246 -297h-174zM525 496h442l-221 483z" />
<glyph unicode="&#xc1;" horiz-adv-x="1492" d="M52 0l694 1475l695 -1475h-248l-135 295h-625l-135 -295h-246zM525 496h442l-221 483zM624 1546l246 297h236l-308 -297h-174z" />
<glyph unicode="&#xc2;" horiz-adv-x="1492" d="M52 0l694 1475l695 -1475h-248l-135 295h-625l-135 -295h-246zM390 1546l244 297h227l244 -297h-170l-187 189l-188 -189h-170zM525 496h442l-221 483z" />
<glyph unicode="&#xc3;" horiz-adv-x="1492" d="M52 0l694 1475l695 -1475h-248l-135 295h-625l-135 -295h-246zM372 1651q25 58 51 97.5t59.5 56.5t57.5 25.5t68 0t66 -15t74 -25.5q4 -1 6 -2q58 -22 93.5 -33.5t66.5 -14.5t46 -0.5t33 20t28 34.5t30 55l78 -51q-22 -53 -44.5 -90.5t-43 -61.5t-45 -35.5t-46 -15 t-51.5 2t-56 13.5t-64 21q-28 10 -43 15q-20 6 -54 16.5t-48 14t-38.5 9t-36 3.5t-29 -5.5t-29 -14.5t-25.5 -27.5t-27 -40.5zM525 496h442l-221 483z" />
<glyph unicode="&#xc4;" horiz-adv-x="1492" d="M52 0l694 1475l695 -1475h-248l-135 295h-625l-135 -295h-246zM396 1739q0 54 38.5 91.5t93.5 37.5q54 0 91.5 -37.5t37.5 -91.5t-37.5 -92.5t-91.5 -38.5q-55 0 -93.5 38.5t-38.5 92.5zM525 496h442l-221 483zM826 1739q0 54 38.5 91.5t92.5 37.5q55 0 92.5 -37.5 t37.5 -91.5t-38 -92.5t-92 -38.5t-92.5 38.5t-38.5 92.5z" />
<glyph unicode="&#xc5;" horiz-adv-x="1492" d="M52 0l687 1459q-78 5 -134.5 64t-56.5 138q0 84 60 143.5t142 59.5t140.5 -59.5t58.5 -143.5q0 -83 -57 -142t-138 -61l687 -1458h-248l-135 295h-625l-135 -295h-246zM525 496h442l-221 483zM648 1661q0 -41 30 -71.5t72 -30.5t71.5 30t29.5 72t-29.5 72.5t-71.5 30.5 t-72 -30.5t-30 -72.5z" />
<glyph unicode="&#xc6;" horiz-adv-x="2097" d="M14 0l1053 1434h940v-213h-707v-381h650v-209h-650v-418h707v-213h-940v297h-581l-218 -297h-254zM636 502h431v587z" />
<glyph unicode="&#xc7;" horiz-adv-x="1472" d="M114 717q0 175 50.5 316t142.5 235.5t220.5 145t283.5 50.5q176 0 331.5 -73.5t255.5 -214.5l-177 -144q-62 94 -177.5 155t-230.5 61q-226 0 -339 -141t-113 -390q0 -247 114 -389t338 -142q109 0 227.5 63t180.5 153l177 -140q-103 -143 -259 -218t-328 -75 q-60 0 -122 8l-41 -98q27 21 69 21q64 0 99.5 -46t35.5 -112q0 -78 -57.5 -131t-161.5 -53q-60 0 -119.5 17.5t-91.5 43.5l43 108q77 -61 169 -63q119 -2 119 80q0 68 -71 68q-47 0 -75 -34l-82 42l63 172h24q-127 31 -224.5 102.5t-156 169.5t-88 212.5t-29.5 240.5z" />
<glyph unicode="&#xc8;" horiz-adv-x="1253" d="M173 0v1434h975v-213h-742v-381h684v-209h-684v-418h742v-213h-975zM426 1843h232l246 -297h-175z" />
<glyph unicode="&#xc9;" horiz-adv-x="1253" d="M173 0v1434h975v-213h-742v-381h684v-209h-684v-418h742v-213h-975zM463 1546l246 297h235l-307 -297h-174z" />
<glyph unicode="&#xca;" horiz-adv-x="1253" d="M173 0v1434h975v-213h-742v-381h684v-209h-684v-418h742v-213h-975zM324 1546l243 297h228l243 -297h-170l-186 189l-188 -189h-170z" />
<glyph unicode="&#xcb;" horiz-adv-x="1253" d="M173 0v1434h975v-213h-742v-381h684v-209h-684v-418h742v-213h-975zM329 1739q0 54 38.5 91.5t93.5 37.5q54 0 91.5 -37.5t37.5 -91.5t-37.5 -92.5t-91.5 -38.5q-55 0 -93.5 38.5t-38.5 92.5zM759 1739q0 54 39 91.5t93 37.5q55 0 92 -37.5t37 -91.5t-37.5 -92.5 t-91.5 -38.5t-93 38.5t-39 92.5z" />
<glyph unicode="&#xcc;" horiz-adv-x="606" d="M-131 1843h232l246 -297h-175zM186 0v1434h233v-1434h-233z" />
<glyph unicode="&#xcd;" horiz-adv-x="606" d="M153 1546l246 297h235l-307 -297h-174zM186 0v1434h233v-1434h-233z" />
<glyph unicode="&#xce;" horiz-adv-x="606" d="M-52 1546l244 297h227l244 -297h-170l-187 189l-188 -189h-170zM186 0v1434h233v-1434h-233z" />
<glyph unicode="&#xcf;" horiz-adv-x="606" d="M-46 1739q0 54 38.5 91.5t93.5 37.5q54 0 91.5 -37.5t37.5 -91.5t-37.5 -92.5t-91.5 -38.5q-55 0 -93.5 38.5t-38.5 92.5zM186 0v1434h233v-1434h-233zM384 1739q0 54 39 91.5t93 37.5q55 0 92 -37.5t37 -91.5t-37.5 -92.5t-91.5 -38.5t-93 38.5t-39 92.5z" />
<glyph unicode="&#xd0;" horiz-adv-x="1521" d="M173 0v1434h494q180 0 322.5 -55.5t233 -153.5t137.5 -227.5t47 -282.5q0 -176 -57 -314t-157.5 -224.5t-234 -131.5t-291.5 -45h-494zM411 216h256q493 0 493 499q0 502 -493 502h-256v-410h305v-201h-305v-390z" />
<glyph unicode="&#xd1;" horiz-adv-x="1519" d="M172 0v1479l942 -967v922h234v-1479l-942 960v-915h-234zM385 1651q21 50 45 85.5t47 56.5t52 30t53.5 10.5t58 -6t59 -15.5t63.5 -22q3 -1 5 -2q58 -22 93.5 -33.5t66.5 -14.5t46 -0.5t33 20t28 34.5t30 55l78 -51q-22 -53 -44.5 -90.5t-43 -61.5t-45 -35.5t-46 -15 t-51.5 2t-56 13.5t-64 21q-28 10 -43 15q-20 6 -54 16.5t-48 14t-38.5 9t-36 3.5t-29 -5.5t-29 -14.5t-25.5 -27.5t-27 -40.5z" />
<glyph unicode="&#xd2;" horiz-adv-x="1660" d="M114 717q0 150 46.5 283.5t134.5 237.5t226.5 165t309.5 61t309.5 -61t226 -165t134 -237.5t46.5 -283.5q0 -175 -57 -318t-155 -236t-227.5 -143.5t-276.5 -50.5q-150 0 -280.5 51t-227.5 144.5t-153 236t-56 316.5zM358 717q0 -254 123 -394.5t350 -140.5t350 140.5 t123 394.5q0 256 -123 395t-350 139t-350 -139t-123 -395zM433 1843h231l246 -297h-174z" />
<glyph unicode="&#xd3;" horiz-adv-x="1660" d="M114 717q0 150 46.5 283.5t134.5 237.5t226.5 165t309.5 61t309.5 -61t226 -165t134 -237.5t46.5 -283.5q0 -175 -57 -318t-155 -236t-227.5 -143.5t-276.5 -50.5q-150 0 -280.5 51t-227.5 144.5t-153 236t-56 316.5zM358 717q0 -254 123 -394.5t350 -140.5t350 140.5 t123 394.5q0 256 -123 395t-350 139t-350 -139t-123 -395zM681 1546l246 297h235l-307 -297h-174z" />
<glyph unicode="&#xd4;" horiz-adv-x="1660" d="M114 717q0 150 46.5 283.5t134.5 237.5t226.5 165t309.5 61t309.5 -61t226 -165t134 -237.5t46.5 -283.5q0 -175 -57 -318t-155 -236t-227.5 -143.5t-276.5 -50.5q-150 0 -280.5 51t-227.5 144.5t-153 236t-56 316.5zM358 717q0 -254 123 -394.5t350 -140.5t350 140.5 t123 394.5q0 256 -123 395t-350 139t-350 -139t-123 -395zM474 1546l244 297h227l244 -297h-170l-187 189l-188 -189h-170z" />
<glyph unicode="&#xd5;" horiz-adv-x="1660" d="M114 717q0 150 46.5 283.5t134.5 237.5t226.5 165t309.5 61t309.5 -61t226 -165t134 -237.5t46.5 -283.5q0 -175 -57 -318t-155 -236t-227.5 -143.5t-276.5 -50.5q-150 0 -280.5 51t-227.5 144.5t-153 236t-56 316.5zM358 717q0 -254 123 -394.5t350 -140.5t350 140.5 t123 394.5q0 256 -123 395t-350 139t-350 -139t-123 -395zM456 1651q21 50 45 85.5t47 56.5t52 30t53.5 10.5t58 -6t59 -15.5t63.5 -22q3 -1 5 -2q58 -22 93.5 -33.5t66.5 -14.5t46 -0.5t33 20t28 34.5t30 55l78 -51q-26 -62 -51.5 -103t-51.5 -63.5t-52.5 -31t-57.5 -5.5 t-64.5 13t-74.5 24q-27 10 -42 15q-19 6 -48.5 14.5t-43.5 13t-36 9.5t-33 5.5t-27.5 -0.5t-27 -7.5t-23.5 -16.5t-24 -26t-23 -37z" />
<glyph unicode="&#xd6;" horiz-adv-x="1660" d="M114 717q0 150 46.5 283.5t134.5 237.5t226.5 165t309.5 61t309.5 -61t226 -165t134 -237.5t46.5 -283.5q0 -175 -57 -318t-155 -236t-227.5 -143.5t-276.5 -50.5q-150 0 -280.5 51t-227.5 144.5t-153 236t-56 316.5zM358 717q0 -254 123 -394.5t350 -140.5t350 140.5 t123 394.5q0 256 -123 395t-350 139t-350 -139t-123 -395zM480 1739q0 54 38.5 91.5t93.5 37.5q54 0 91.5 -37.5t37.5 -91.5t-37.5 -92.5t-91.5 -38.5q-55 0 -93.5 38.5t-38.5 92.5zM910 1739q0 54 39 91.5t93 37.5q55 0 92 -37.5t37 -91.5t-37.5 -92.5t-91.5 -38.5 t-93 38.5t-39 92.5z" />
<glyph unicode="&#xd7;" horiz-adv-x="1318" d="M154 985l868 -868l143 143l-868 868z" />
<glyph unicode="&#xd8;" horiz-adv-x="1693" d="M106 -164l225 320q-103 99 -160 241t-57 320q0 150 46.5 283.5t134.5 237.5t226.5 165t309.5 61q204 0 358 -84l179 254h219l-253 -361q104 -103 158.5 -248t54.5 -308q0 -175 -57 -318t-155 -236t-227.5 -143.5t-276.5 -50.5q-194 0 -354 83l-151 -216h-220zM358 717 q0 -235 105 -373l601 857q-98 50 -233 50q-227 0 -350 -139t-123 -395zM602 230q96 -48 229 -48q227 0 350 140.5t123 394.5q0 231 -102 368z" />
<glyph unicode="&#xd9;" horiz-adv-x="1480" d="M153 618v816h234v-791q0 -237 81.5 -350.5t270.5 -113.5q192 0 274 113t82 351v791h234v-813q0 -313 -149 -482.5t-441 -169.5q-291 0 -438.5 168.5t-147.5 480.5zM322 1843h231l246 -297h-174z" />
<glyph unicode="&#xda;" horiz-adv-x="1480" d="M153 618v816h234v-791q0 -237 81.5 -350.5t270.5 -113.5q192 0 274 113t82 351v791h234v-813q0 -313 -149 -482.5t-441 -169.5q-291 0 -438.5 168.5t-147.5 480.5zM573 1546l245 297h236l-307 -297h-174z" />
<glyph unicode="&#xdb;" horiz-adv-x="1480" d="M153 618v816h234v-791q0 -237 81.5 -350.5t270.5 -113.5q192 0 274 113t82 351v791h234v-813q0 -313 -149 -482.5t-441 -169.5q-291 0 -438.5 168.5t-147.5 480.5zM401 1546l243 297h228l243 -297h-170l-186 189l-188 -189h-170z" />
<glyph unicode="&#xdc;" horiz-adv-x="1480" d="M153 618v816h234v-791q0 -237 81.5 -350.5t270.5 -113.5q192 0 274 113t82 351v791h234v-813q0 -313 -149 -482.5t-441 -169.5q-291 0 -438.5 168.5t-147.5 480.5zM406 1739q0 54 38.5 91.5t93.5 37.5q54 0 91.5 -37.5t37.5 -91.5t-37.5 -92.5t-91.5 -38.5 q-55 0 -93.5 38.5t-38.5 92.5zM836 1739q0 54 39 91.5t93 37.5q55 0 92 -37.5t37 -91.5t-37.5 -92.5t-91.5 -38.5t-93 38.5t-39 92.5z" />
<glyph unicode="&#xdd;" horiz-adv-x="1388" d="M29 1434h256l409 -621l410 621h256l-549 -828v-606h-233v606zM567 1546l246 297h236l-308 -297h-174z" />
<glyph unicode="&#xde;" horiz-adv-x="1210" d="M166 0v1434h233v-240h131q156 0 273 -35.5t189 -101t107.5 -154.5t35.5 -201q0 -231 -138.5 -345.5t-375.5 -114.5h-222v-242h-233zM399 450h211q166 0 228.5 63.5t62.5 195.5q0 62 -15.5 107.5t-57 86t-124 61.5t-206.5 21h-99v-535z" />
<glyph unicode="&#xdf;" horiz-adv-x="1318" d="M166 0v1020q0 61 13.5 119.5t46.5 116.5t83 101t129.5 70t179.5 27q202 0 318.5 -94.5t116.5 -245.5q0 -107 -64 -190.5t-135 -106.5q32 -3 74 -16t94.5 -42.5t95.5 -69.5t72 -104t29 -139q0 -44 -8.5 -86.5t-29 -87.5t-52 -84t-81.5 -74t-113.5 -60t-151 -39.5 t-191.5 -14.5v209q105 0 182 18.5t116 43.5t61.5 61.5t27 62t4.5 56.5q0 102 -105.5 166t-285.5 64v194q5 1 13.5 2t32.5 8t46 16t49 26.5t46.5 39.5t33 55.5t13.5 73.5q1 42 -15.5 74.5t-38.5 49t-52 26.5t-50 12.5t-38 2.5q-55 0 -98 -16.5t-68 -42.5t-40.5 -62t-21 -69 t-5.5 -70v-1001h-233z" />
<glyph unicode="&#xe0;" horiz-adv-x="1097" d="M76 323q0 69 20 129t61 111.5t114.5 81.5t170.5 30q141 0 297 -55v19q0 233 -174 233q-163 0 -316 -111l-89 160q77 53 203.5 91t240.5 38q178 0 269.5 -98.5t91.5 -253.5v-699h-197q-24 56 -29 110q-48 -62 -125.5 -103.5t-171.5 -41.5q-117 0 -202 52t-124.5 132 t-39.5 175zM222 1638h232l246 -297h-174zM307 343q0 -103 41.5 -156t136.5 -53q65 0 133.5 39.5t120.5 103.5v191q-138 58 -254 58q-88 0 -133 -48.5t-45 -134.5z" />
<glyph unicode="&#xe1;" horiz-adv-x="1097" d="M76 323q0 69 20 129t61 111.5t114.5 81.5t170.5 30q141 0 297 -55v19q0 233 -174 233q-163 0 -316 -111l-89 160q77 53 203.5 91t240.5 38q178 0 269.5 -98.5t91.5 -253.5v-699h-197q-24 56 -29 110q-48 -62 -125.5 -103.5t-171.5 -41.5q-117 0 -202 52t-124.5 132 t-39.5 175zM307 343q0 -103 41.5 -156t136.5 -53q65 0 133.5 39.5t120.5 103.5v191q-138 58 -254 58q-88 0 -133 -48.5t-45 -134.5zM467 1341l246 297h235l-307 -297h-174z" />
<glyph unicode="&#xe2;" horiz-adv-x="1097" d="M76 323q0 69 20 129t61 111.5t114.5 81.5t170.5 30q141 0 297 -55v19q0 233 -174 233q-163 0 -316 -111l-89 160q77 53 203.5 91t240.5 38q178 0 269.5 -98.5t91.5 -253.5v-699h-197q-24 56 -29 110q-48 -62 -125.5 -103.5t-171.5 -41.5q-117 0 -202 52t-124.5 132 t-39.5 175zM175 1341l244 297h227l244 -297h-170l-187 189l-188 -189h-170zM307 343q0 -103 41.5 -156t136.5 -53q65 0 133.5 39.5t120.5 103.5v191q-138 58 -254 58q-88 0 -133 -48.5t-45 -134.5z" />
<glyph unicode="&#xe3;" horiz-adv-x="1097" d="M76 323q0 69 20 129t61 111.5t114.5 81.5t170.5 30q141 0 297 -55v19q0 233 -174 233q-163 0 -316 -111l-89 160q77 53 203.5 91t240.5 38q178 0 269.5 -98.5t91.5 -253.5v-699h-197q-24 56 -29 110q-48 -62 -125.5 -103.5t-171.5 -41.5q-117 0 -202 52t-124.5 132 t-39.5 175zM157 1446q21 50 45 85.5t47 56.5t52 30t53.5 10.5t58 -6t59 -15.5t63.5 -22q3 -1 5 -2q58 -22 93.5 -33.5t66 -14t46 -0.5t33.5 20t28 35t30 55l78 -52q-26 -62 -51.5 -103t-51.5 -63.5t-52.5 -31t-57.5 -5.5t-64.5 13t-74.5 24q-27 10 -42 15q-19 6 -48.5 14.5 t-43.5 13t-36 9.5t-33 5.5t-27.5 -0.5t-27 -7.5t-23.5 -16.5t-24 -26t-23 -37zM307 343q0 -103 41.5 -156t136.5 -53q65 0 133.5 39.5t120.5 103.5v191q-138 58 -254 58q-88 0 -133 -48.5t-45 -134.5z" />
<glyph unicode="&#xe4;" horiz-adv-x="1097" d="M76 323q0 69 20 129t61 111.5t114.5 81.5t170.5 30q141 0 297 -55v19q0 233 -174 233q-163 0 -316 -111l-89 160q77 53 203.5 91t240.5 38q178 0 269.5 -98.5t91.5 -253.5v-699h-197q-24 56 -29 110q-48 -62 -125.5 -103.5t-171.5 -41.5q-117 0 -202 52t-124.5 132 t-39.5 175zM181 1534q0 54 38.5 91.5t93.5 37.5q54 0 91.5 -37.5t37.5 -91.5t-37.5 -92.5t-91.5 -38.5q-55 0 -93.5 38.5t-38.5 92.5zM307 343q0 -103 41.5 -156t136.5 -53q65 0 133.5 39.5t120.5 103.5v191q-138 58 -254 58q-88 0 -133 -48.5t-45 -134.5zM611 1534 q0 54 39 91.5t93 37.5q55 0 92 -37.5t37 -91.5t-37.5 -92.5t-91.5 -38.5t-93 38.5t-39 92.5z" />
<glyph unicode="&#xe5;" horiz-adv-x="1097" d="M76 323q0 69 20 129t61 111.5t114.5 81.5t170.5 30q141 0 297 -55v19q0 233 -174 233q-163 0 -316 -111l-89 160q77 53 203.5 91t240.5 38q178 0 269.5 -98.5t91.5 -253.5v-699h-197q-24 56 -29 110q-48 -62 -125.5 -103.5t-171.5 -41.5q-117 0 -202 52t-124.5 132 t-39.5 175zM307 343q0 -103 41.5 -156t136.5 -53q65 0 133.5 39.5t120.5 103.5v191q-138 58 -254 58q-88 0 -133 -48.5t-45 -134.5zM333 1456q0 84 60.5 143.5t142.5 59.5t140 -59t58 -144t-58 -144t-140 -59t-142.5 60.5t-60.5 142.5zM433 1456q0 -41 30.5 -71.5 t72.5 -30.5t71.5 30.5t29.5 72.5t-29.5 72t-71.5 30t-72.5 -30.5t-30.5 -72.5z" />
<glyph unicode="&#xe6;" horiz-adv-x="1800" d="M88 323q0 69 19.5 129t60 111.5t113.5 81.5t170 30q148 0 299 -55q-8 141 -50 196.5t-122 55.5q-163 0 -317 -112l-89 161q76 53 202.5 91t241.5 38q197 0 294 -126q132 123 326 123q110 0 193 -32t136 -87t86.5 -138t46.5 -176.5t13 -210.5h-737q16 -120 84.5 -191 t183.5 -71q134 0 294 92l81 -160q-69 -48 -166 -79t-186 -31q-284 0 -423 205q-160 -203 -387 -203q-88 0 -159.5 30t-116 80.5t-68 114t-23.5 133.5zM319 344q0 -103 42 -156t137 -53q73 0 149.5 48.5t127.5 125.5q-22 72 -27 161q-134 56 -250 56q-89 0 -134 -48t-45 -134 zM970 559h533q-7 150 -68.5 232.5t-202.5 82.5q-124 0 -188.5 -86t-73.5 -229z" />
<glyph unicode="&#xe7;" horiz-adv-x="1044" d="M86 514q0 261 132 406t392 145q96 0 204.5 -36.5t166.5 -94.5l-77 -161q-51 44 -135.5 76t-170.5 32q-131 0 -205 -94t-74 -273t74 -273t205 -94q86 0 170.5 32t135.5 76l77 -161q-58 -58 -166.5 -94.5t-204.5 -36.5h-9l-36 -86q27 21 70 21q64 0 99.5 -46t35.5 -112 q0 -78 -57.5 -131t-161.5 -53q-60 0 -119.5 17.5t-91.5 43.5l43 108q77 -62 168 -63q120 -2 120 80q0 68 -72 68q-47 0 -75 -34l-82 42l57 153q-206 30 -309.5 171t-103.5 372z" />
<glyph unicode="&#xe8;" horiz-adv-x="1136" d="M86 506q0 248 136 394.5t349 146.5q137 0 232.5 -46t148.5 -134.5t76 -201t23 -262.5h-734q16 -121 83 -191.5t182 -70.5q130 0 292 93l78 -160q-69 -48 -166 -79.5t-186 -31.5q-106 0 -193 30.5t-146 82t-99 122t-58 147.5t-18 161zM242 1638h232l246 -297h-174z M313 559h527q-6 150 -66 232.5t-201 82.5q-125 0 -188.5 -85.5t-71.5 -229.5z" />
<glyph unicode="&#xe9;" horiz-adv-x="1136" d="M86 506q0 248 136 394.5t349 146.5q137 0 232.5 -46t148.5 -134.5t76 -201t23 -262.5h-734q16 -121 83 -191.5t182 -70.5q130 0 292 93l78 -160q-69 -48 -166 -79.5t-186 -31.5q-106 0 -193 30.5t-146 82t-99 122t-58 147.5t-18 161zM313 559h527q-6 150 -66 232.5 t-201 82.5q-125 0 -188.5 -85.5t-71.5 -229.5zM461 1341l246 297h235l-307 -297h-174z" />
<glyph unicode="&#xea;" horiz-adv-x="1136" d="M86 506q0 248 136 394.5t349 146.5q137 0 232.5 -46t148.5 -134.5t76 -201t23 -262.5h-734q16 -121 83 -191.5t182 -70.5q130 0 292 93l78 -160q-69 -48 -166 -79.5t-186 -31.5q-106 0 -193 30.5t-146 82t-99 122t-58 147.5t-18 161zM215 1341l244 297h227l244 -297h-170 l-187 189l-188 -189h-170zM313 559h527q-6 150 -66 232.5t-201 82.5q-125 0 -188.5 -85.5t-71.5 -229.5z" />
<glyph unicode="&#xeb;" horiz-adv-x="1136" d="M86 506q0 248 136 394.5t349 146.5q137 0 232.5 -46t148.5 -134.5t76 -201t23 -262.5h-734q16 -121 83 -191.5t182 -70.5q130 0 292 93l78 -160q-69 -48 -166 -79.5t-186 -31.5q-106 0 -193 30.5t-146 82t-99 122t-58 147.5t-18 161zM221 1534q0 54 38.5 91.5t93.5 37.5 q54 0 91.5 -37.5t37.5 -91.5t-37.5 -92.5t-91.5 -38.5q-55 0 -93.5 38.5t-38.5 92.5zM313 559h527q-6 150 -66 232.5t-201 82.5q-125 0 -188.5 -85.5t-71.5 -229.5zM651 1534q0 54 38.5 91.5t92.5 37.5q55 0 92.5 -37.5t37.5 -91.5t-38 -92.5t-92 -38.5t-92.5 38.5 t-38.5 92.5z" />
<glyph unicode="&#xec;" horiz-adv-x="540" d="M-172 1638h232l246 -297h-175zM156 0v1024h229v-1024h-229z" />
<glyph unicode="&#xed;" horiz-adv-x="540" d="M116 1341l245 297h236l-307 -297h-174zM156 0v1024h229v-1024h-229z" />
<glyph unicode="&#xee;" horiz-adv-x="540" d="M-86 1341l244 297h227l244 -297h-170l-187 189l-188 -189h-170zM156 0v1024h229v-1024h-229z" />
<glyph unicode="&#xef;" horiz-adv-x="540" d="M-80 1534q0 54 38.5 91.5t93.5 37.5q54 0 91.5 -37.5t37.5 -91.5t-37.5 -92.5t-91.5 -38.5q-55 0 -93.5 38.5t-38.5 92.5zM156 0v1024h229v-1024h-229zM350 1534q0 54 38.5 91.5t92.5 37.5q55 0 92.5 -37.5t37.5 -91.5t-38 -92.5t-92 -38.5t-92.5 38.5t-38.5 92.5z" />
<glyph unicode="&#xf0;" horiz-adv-x="1198" d="M92 506q0 156 58 278.5t169 192.5q113 70 275 70q82 0 149 -18q-25 59 -76 127l-266 -69l-41 159l176 46q-80 66 -157 94l201 101q91 -51 178 -138l201 52l41 -158l-127 -33q103 -148 162 -328t61 -360q0 -261 -131 -410t-371 -149q-241 0 -371.5 148.5t-130.5 394.5z M330 506q0 -162 66 -262.5t198 -100.5q130 0 196 100.5t66 262.5q0 161 -66 259t-196 98q-132 0 -198 -97.5t-66 -259.5z" />
<glyph unicode="&#xf1;" d="M144 0v1024h198q17 -33 27 -137q64 71 166 117.5t205 46.5q171 0 260.5 -103t89.5 -270v-678h-229v610q0 99 -31.5 160t-83 78.5t-115 6.5t-131 -51.5t-127.5 -100.5v-703h-229zM240 1446q21 50 45 85.5t47 56.5t52 30t53.5 10.5t58 -6t59 -15.5t63.5 -22q3 -1 5 -2 q58 -22 93.5 -33.5t66 -14t46 -0.5t33.5 20t28 35t30 55l78 -52q-22 -53 -44.5 -90.5t-43 -61.5t-45 -35.5t-46 -15t-51.5 2t-56 13.5t-64 21q-28 10 -43 15q-20 6 -54 16.5t-48 14t-38.5 9t-36 3.5t-29 -5.5t-29 -14.5t-25.5 -27.5t-27 -40.5z" />
<glyph unicode="&#xf2;" horiz-adv-x="1181" d="M86 506q0 256 139.5 398.5t366.5 142.5q241 0 372.5 -148t131.5 -393q0 -246 -132 -394.5t-372 -148.5q-242 0 -374 148.5t-132 394.5zM199 1638h231l246 -297h-174zM320 506q0 -107 28.5 -189t91 -132.5t152.5 -50.5q132 0 200.5 104t68.5 268q0 163 -68.5 264.5 t-200.5 101.5q-134 0 -203 -101.5t-69 -264.5z" />
<glyph unicode="&#xf3;" horiz-adv-x="1181" d="M86 506q0 256 139.5 398.5t366.5 142.5q241 0 372.5 -148t131.5 -393q0 -246 -132 -394.5t-372 -148.5q-242 0 -374 148.5t-132 394.5zM320 506q0 -107 28.5 -189t91 -132.5t152.5 -50.5q132 0 200.5 104t68.5 268q0 163 -68.5 264.5t-200.5 101.5q-134 0 -203 -101.5 t-69 -264.5zM483 1341l246 297h235l-307 -297h-174z" />
<glyph unicode="&#xf4;" horiz-adv-x="1181" d="M86 506q0 256 139.5 398.5t366.5 142.5q241 0 372.5 -148t131.5 -393q0 -246 -132 -394.5t-372 -148.5q-242 0 -374 148.5t-132 394.5zM236 1341l243 297h228l243 -297h-170l-186 189l-188 -189h-170zM320 506q0 -107 28.5 -189t91 -132.5t152.5 -50.5q132 0 200.5 104 t68.5 268q0 163 -68.5 264.5t-200.5 101.5q-134 0 -203 -101.5t-69 -264.5z" />
<glyph unicode="&#xf5;" horiz-adv-x="1181" d="M86 506q0 256 139.5 398.5t366.5 142.5q241 0 372.5 -148t131.5 -393q0 -246 -132 -394.5t-372 -148.5q-242 0 -374 148.5t-132 394.5zM217 1446q21 50 45 85.5t47 56.5t52 30t53.5 10.5t58 -6t59 -15.5t63.5 -22q3 -1 5 -2q58 -22 93.5 -33.5t66 -14t46 -0.5t33.5 20 t28 35t30 55l78 -52q-22 -53 -44.5 -90.5t-43 -61.5t-45 -35.5t-46 -15t-51.5 2t-56 13.5t-64 21q-28 10 -43 15q-20 6 -54 16.5t-48 14t-38.5 9t-36 3.5t-29 -5.5t-29 -14.5t-25.5 -27.5t-27 -40.5zM320 506q0 -107 28.5 -189t91 -132.5t152.5 -50.5q132 0 200.5 104 t68.5 268q0 163 -68.5 264.5t-200.5 101.5q-134 0 -203 -101.5t-69 -264.5z" />
<glyph unicode="&#xf6;" horiz-adv-x="1181" d="M86 506q0 256 139.5 398.5t366.5 142.5q241 0 372.5 -148t131.5 -393q0 -246 -132 -394.5t-372 -148.5q-242 0 -374 148.5t-132 394.5zM241 1534q0 54 38.5 91.5t93.5 37.5q54 0 91.5 -37.5t37.5 -91.5t-37.5 -92.5t-91.5 -38.5q-55 0 -93.5 38.5t-38.5 92.5zM320 506 q0 -107 28.5 -189t91 -132.5t152.5 -50.5q132 0 200.5 104t68.5 268q0 163 -68.5 264.5t-200.5 101.5q-134 0 -203 -101.5t-69 -264.5zM671 1534q0 54 39 91.5t93 37.5q55 0 92 -37.5t37 -91.5t-37.5 -92.5t-91.5 -38.5t-93 38.5t-39 92.5z" />
<glyph unicode="&#xf7;" horiz-adv-x="1300" d="M138 535v200h1024v-200h-1024zM521 197q0 54 38.5 91.5t92.5 37.5t91.5 -37.5t37.5 -91.5t-37.5 -92.5t-91.5 -38.5t-92.5 38.5t-38.5 92.5zM521 1075q0 54 38.5 91.5t92.5 37.5t91.5 -37.5t37.5 -91.5t-37.5 -92.5t-91.5 -38.5t-92.5 38.5t-38.5 92.5z" />
<glyph unicode="&#xf8;" horiz-adv-x="1206" d="M97 506q0 256 139.5 398.5t366.5 142.5q104 0 189 -29l80 158h170l-117 -230q89 -71 135.5 -184t46.5 -256q0 -246 -132 -394.5t-372 -148.5q-92 0 -170 23l-83 -162h-170l117 227q-98 70 -149 187.5t-51 267.5zM331 506q0 -162 65 -261l310 606q-48 21 -103 21 q-134 0 -203 -101.5t-69 -264.5zM516 148q40 -14 87 -14q132 0 200.5 104t68.5 268q0 145 -51 237z" />
<glyph unicode="&#xf9;" d="M134 346v678h229v-610q0 -99 31.5 -160t83 -78.5t115 -6.5t131 51.5t127.5 100.5v703h229v-1024h-199q-16 31 -26 137q-64 -71 -166 -117.5t-205 -46.5q-171 0 -260.5 103t-89.5 270zM220 1638h231l246 -297h-174z" />
<glyph unicode="&#xfa;" d="M134 346v678h229v-610q0 -99 31.5 -160t83 -78.5t115 -6.5t131 51.5t127.5 100.5v703h229v-1024h-199q-16 31 -26 137q-64 -71 -166 -117.5t-205 -46.5q-171 0 -260.5 103t-89.5 270zM466 1341l245 297h236l-307 -297h-174z" />
<glyph unicode="&#xfb;" d="M134 346v678h229v-610q0 -99 31.5 -160t83 -78.5t115 -6.5t131 51.5t127.5 100.5v703h229v-1024h-199q-16 31 -26 137q-64 -71 -166 -117.5t-205 -46.5q-171 0 -260.5 103t-89.5 270zM251 1341l244 297h227l244 -297h-170l-187 189l-188 -189h-170z" />
<glyph unicode="&#xfc;" d="M134 346v678h229v-610q0 -99 31.5 -160t83 -78.5t115 -6.5t131 51.5t127.5 100.5v703h229v-1024h-199q-16 31 -26 137q-64 -71 -166 -117.5t-205 -46.5q-171 0 -260.5 103t-89.5 270zM257 1534q0 54 38.5 91.5t93.5 37.5q54 0 91.5 -37.5t37.5 -91.5t-37.5 -92.5 t-91.5 -38.5q-55 0 -93.5 38.5t-38.5 92.5zM687 1534q0 54 38.5 91.5t92.5 37.5q55 0 92.5 -37.5t37.5 -91.5t-38 -92.5t-92 -38.5t-92.5 38.5t-38.5 92.5z" />
<glyph unicode="&#xfd;" horiz-adv-x="1163" d="M60 1024h244l279 -754l309 754h217l-473 -1120q-102 -252 -228.5 -322.5t-328.5 8.5l64 189q64 -32 109.5 -36t83.5 25t67 82.5t65 149.5zM499 1341l246 297h235l-307 -297h-174z" />
<glyph unicode="&#xfe;" horiz-adv-x="1234" d="M127 -410v1905h233v-569q136 135 314 135q110 0 196.5 -41t141 -114t82.5 -171.5t28 -216.5q0 -117 -28 -215t-82.5 -171t-141 -114t-196.5 -41q-177 0 -314 141v-528h-233zM360 344q42 -90 116 -140.5t170 -50.5q80 0 133 48.5t75 127.5t22 189t-22 189.5t-75 128 t-133 48.5q-96 0 -170 -51t-116 -141v-348z" />
<glyph unicode="&#xff;" horiz-adv-x="1163" d="M60 1024h244l279 -754l309 754h217l-473 -1120q-102 -252 -228.5 -322.5t-328.5 8.5l64 189q64 -32 109.5 -36t83.5 25t67 82.5t65 149.5zM246 1534q0 54 38.5 91.5t93.5 37.5q54 0 91.5 -37.5t37.5 -91.5t-37.5 -92.5t-91.5 -38.5q-55 0 -93.5 38.5t-38.5 92.5z M676 1534q0 54 39 91.5t93 37.5q55 0 92 -37.5t37 -91.5t-37.5 -92.5t-91.5 -38.5t-93 38.5t-39 92.5z" />
<glyph unicode="&#x152;" horiz-adv-x="2103" d="M117 717q0 119 28.5 226t87.5 197t143 155.5t200.5 102t254.5 36.5h1164v-213h-719v-381h661v-209h-661v-418h719v-213h-1164q-120 0 -227 28.5t-196.5 87.5t-154 143t-100.5 201t-36 257zM360 717q0 -252 123 -380t355 -128h209v1015h-209q-233 0 -355.5 -126.5 t-122.5 -380.5z" />
<glyph unicode="&#x153;" horiz-adv-x="1943" d="M80 506q0 256 139.5 398.5t366.5 142.5q262 0 398 -179q65 86 162 132.5t213 46.5q137 0 232.5 -46t148.5 -134.5t76 -201t23 -262.5h-734q16 -121 83 -191.5t182 -70.5q130 0 292 93l78 -160q-69 -48 -166 -79.5t-186 -31.5q-265 0 -403 182q-134 -182 -399 -182 q-242 0 -374 148.5t-132 394.5zM314 506q0 -107 28.5 -189t91 -132.5t152.5 -50.5q132 0 200.5 104t68.5 268q0 163 -68.5 264.5t-200.5 101.5q-134 0 -203 -101.5t-69 -264.5zM1101 559h527q-3 73 -17 127.5t-43.5 98t-81 66.5t-124.5 23q-125 0 -189 -85.5t-72 -229.5z " />
<glyph unicode="&#x178;" horiz-adv-x="1388" d="M29 1434h256l409 -621l410 621h256l-549 -828v-606h-233v606zM344 1739q0 54 38.5 91.5t93.5 37.5q54 0 91.5 -37.5t37.5 -91.5t-37.5 -92.5t-91.5 -38.5q-55 0 -93.5 38.5t-38.5 92.5zM774 1739q0 54 38.5 91.5t92.5 37.5q55 0 92.5 -37.5t37.5 -91.5t-38 -92.5 t-92 -38.5t-92.5 38.5t-38.5 92.5z" />
<glyph unicode="&#x2c6;" horiz-adv-x="714" d="M0 1341l244 297h227l244 -297h-170l-187 189l-188 -189h-170z" />
<glyph unicode="&#x2dc;" horiz-adv-x="757" d="M0 1446q21 50 45 85.5t47 56.5t52 30t53.5 10.5t58 -6t59 -15.5t63.5 -22q3 -1 5 -2q58 -22 93.5 -33.5t66 -14t46 -0.5t33.5 20t28 35t30 55l78 -52q-22 -53 -44.5 -90.5t-43 -61.5t-45 -35.5t-46 -15t-51.5 2t-56 13.5t-64 21q-28 10 -43 15q-20 6 -54 16.5t-48 14 t-38.5 9t-36 3.5t-29 -5.5t-29 -14.5t-25.5 -27.5t-27 -40.5z" />
<glyph unicode="&#x2000;" horiz-adv-x="934" />
<glyph unicode="&#x2001;" horiz-adv-x="1868" />
<glyph unicode="&#x2002;" horiz-adv-x="934" />
<glyph unicode="&#x2003;" horiz-adv-x="1868" />
<glyph unicode="&#x2004;" horiz-adv-x="622" />
<glyph unicode="&#x2005;" horiz-adv-x="467" />
<glyph unicode="&#x2006;" horiz-adv-x="311" />
<glyph unicode="&#x2007;" horiz-adv-x="311" />
<glyph unicode="&#x2008;" horiz-adv-x="233" />
<glyph unicode="&#x2009;" horiz-adv-x="373" />
<glyph unicode="&#x200a;" horiz-adv-x="103" />
<glyph unicode="&#x2010;" horiz-adv-x="724" d="M106 403v201h512v-201h-512z" />
<glyph unicode="&#x2011;" horiz-adv-x="724" d="M106 403v201h512v-201h-512z" />
<glyph unicode="&#x2012;" horiz-adv-x="724" d="M106 403v201h512v-201h-512z" />
<glyph unicode="&#x2013;" horiz-adv-x="1134" d="M106 403v201h922v-201h-922z" />
<glyph unicode="&#x2014;" horiz-adv-x="1671" d="M106 403v201h1459v-201h-1459z" />
<glyph unicode="&#x2018;" horiz-adv-x="458" d="M123 1217q0 39 32 102.5t95 163.5h65l-47 -137q49 -5 82 -42t33 -87q0 -54 -38.5 -92t-92.5 -38t-91.5 38t-37.5 92z" />
<glyph unicode="&#x2019;" horiz-adv-x="458" d="M76 1354q0 54 38.5 91.5t92.5 37.5t91.5 -37.5t37.5 -91.5q0 -39 -32.5 -103t-94.5 -164h-66l47 138q-48 5 -81 41.5t-33 87.5z" />
<glyph unicode="&#x201c;" horiz-adv-x="784" d="M123 1217q0 65 127 266h65l-47 -137q49 -5 82 -42t33 -87q0 -54 -38.5 -92t-92.5 -38t-91.5 38t-37.5 92zM449 1217q0 67 126 266h66l-47 -137q49 -5 82 -42t33 -87q0 -54 -38.5 -92t-92.5 -38t-91.5 38t-37.5 92z" />
<glyph unicode="&#x201d;" horiz-adv-x="784" d="M76 1358q0 54 38.5 91.5t92.5 37.5t91.5 -37.5t37.5 -91.5q0 -62 -127 -266h-66l47 137q-48 5 -81 41.5t-33 87.5zM401 1358q0 54 38.5 91.5t92.5 37.5t92 -37.5t38 -91.5q0 -62 -127 -266h-66l47 137q-49 5 -82 42t-33 87z" />
<glyph unicode="&#x2022;" horiz-adv-x="919" d="M204 657q0 105 76 180.5t181 75.5t180.5 -75.5t75.5 -180.5t-75.5 -181t-180.5 -76t-181 76t-76 181z" />
<glyph unicode="&#x2026;" horiz-adv-x="1353" d="M129 111q0 54 39 91.5t93 37.5q55 0 92 -37.5t37 -91.5t-37.5 -92.5t-91.5 -38.5t-93 38.5t-39 92.5zM548 111q0 54 38.5 91.5t92.5 37.5t91.5 -37.5t37.5 -91.5t-37.5 -92.5t-91.5 -38.5t-92.5 38.5t-38.5 92.5zM963 111q0 54 38.5 91.5t92.5 37.5t92 -37.5t38 -91.5 t-38 -92.5t-92 -38.5t-92.5 38.5t-38.5 92.5z" />
<glyph unicode="&#x202f;" horiz-adv-x="373" />
<glyph unicode="&#x2039;" horiz-adv-x="684" d="M86 510l338 461l158 -105l-238 -356l238 -363l-158 -104z" />
<glyph unicode="&#x203a;" horiz-adv-x="684" d="M102 147l238 363l-238 356l158 105l338 -461l-338 -467z" />
<glyph unicode="&#x205f;" horiz-adv-x="467" />
<glyph unicode="&#x20ac;" horiz-adv-x="1257" d="M97 463v160h168q-4 40 -4 94t4 94h-168v160h195q34 127 103 225t158.5 156t194.5 87.5t214 27t215 -32.5l-28 -193q-70 22 -142 26.5t-143.5 -11.5t-133.5 -51t-113 -95t-82 -139h421l-21 -160h-438q-5 -50 -5 -94t5 -94h415l-20 -160h-357q31 -79 82.5 -139t113.5 -95 t133 -51t143.5 -12t141.5 26l28 -192q-104 -30 -212 -32t-214 27t-195.5 87t-159.5 156t-104 225h-195z" />
<glyph unicode="&#x2122;" horiz-adv-x="696" d="M59 1391v43h215v-43h-86v-244h-41v244h-88zM332 1147v295l141 -144l139 144v-295h-45v190l-94 -98l-96 97v-189h-45z" />
<glyph unicode="&#x25fc;" horiz-adv-x="1025" d="M0 0v1025h1025v-1025h-1025z" />
<glyph unicode="&#xfb01;" horiz-adv-x="1112" d="M66 840v184h172v18q-1 84 3.5 144t18 114.5t36.5 88.5t61.5 60t90 36.5t125.5 12t164.5 -9t209.5 -31.5v-211q-96 19 -158 30t-117.5 13.5t-86 3t-56.5 -17t-36 -30.5t-17 -54t-7.5 -70.5t-0.5 -94.5v-2h479v-1024h-229v840h-250v-840h-230v840h-172z" />
<glyph unicode="&#xfb02;" horiz-adv-x="1099" d="M66 840v184h172v18q-1 91 1.5 146.5t12.5 117t29.5 94t55 64.5t86.5 42t126 13.5t171.5 -8.5t224.5 -36v-1475h-227v1294q-67 13 -106 19t-69.5 -3.5t-43.5 -19t-21.5 -51.5t-9 -75t-0.5 -113v-25v-2h131v-184h-131v-840h-230v840h-172z" />
<glyph unicode="&#xfb03;" horiz-adv-x="1650" d="M66 840v184h172v18q-1 105 6.5 179t28.5 130t54 87.5t86.5 47t122.5 13.5t165 -18v-211q-62 15 -97.5 21.5t-64.5 -1t-41 -18.5t-20 -51t-9 -77t-1 -118v-2h323v18q-1 85 3.5 145t18 114.5t36 89t61 62t90 39t125.5 14.5t164.5 -5t209.5 -26v-211q-76 12 -130 20.5 t-103 11t-81 5t-60.5 -6.5t-44 -13.5t-28.5 -27.5t-18 -36.5t-9 -51t-4 -61.5v-78v-2h478v-1024h-229v840h-249v-840h-230v840h-323v-840h-230v840h-172z" />
</font>
</defs>
</svg>
