<?xml version="1.0" standalone="no"?>
<!DOCTYPE svg PUBLIC "-//W3C//DTD SVG 1.1//EN" "http://www.w3.org/Graphics/SVG/1.1/DTD/svg11.dtd" >
<svg xmlns="http://www.w3.org/2000/svg">
<metadata></metadata>
<defs>
<font id="atc_overlookbold" horiz-adv-x="1234" >
<font-face units-per-em="2048" ascent="1638" descent="-410" />
<missing-glyph horiz-adv-x="585" />
<glyph horiz-adv-x="2048" />
<glyph horiz-adv-x="2048" />
<glyph unicode="&#xd;" horiz-adv-x="2048" />
<glyph unicode=" "  horiz-adv-x="585" />
<glyph unicode="&#x09;" horiz-adv-x="585" />
<glyph unicode="&#xa0;" horiz-adv-x="585" />
<glyph unicode="!" horiz-adv-x="557" d="M131 128q0 62 43 104.5t105 42.5t104 -42.5t42 -104.5t-42 -105t-104 -43t-105 43t-43 105zM153 474v1001h252v-1001h-252z" />
<glyph unicode="&#x22;" horiz-adv-x="774" d="M90 1638h249l-35 -399h-179zM463 1638h249l-34 -399h-180z" />
<glyph unicode="#" horiz-adv-x="1318" d="M69 342v221h189l45 316h-168v221h200l47 334h252l-50 -334h255l47 334h249l-47 -334h162v-221h-195l-44 -316h173v-221h-206l-47 -342h-250l47 342h-252l-47 -342h-250l48 342h-158zM508 561h254l45 320h-254z" />
<glyph unicode="$" horiz-adv-x="1177" d="M71 110l132 228q112 -80 251 -103.5t239 24t100 154.5q0 81 -67.5 131.5t-195.5 95.5q-75 26 -124 45.5t-105 47.5t-91 58t-65 69.5t-44 89.5t-14 111q0 86 28 155t78.5 115.5t115 76t143.5 43.5v187h243v-178q179 -15 336 -82l-96 -235q-81 39 -175.5 60.5t-178.5 20 t-139.5 -39t-55.5 -109.5q0 -44 33.5 -79.5t79.5 -56.5t117 -43q116 -36 197.5 -74.5t147.5 -93t98.5 -129t32.5 -171.5q0 -103 -31.5 -183.5t-87.5 -133t-125 -84.5t-153 -47v-185h-243v176q-127 12 -232 50.5t-149 88.5z" />
<glyph unicode="%" horiz-adv-x="1744" d="M84 1108q0 169 84 268t241 99q161 0 241.5 -99.5t80.5 -267.5q0 -167 -84 -267t-242 -100q-155 0 -238 101t-83 266zM204 0l1053 1434h257l-1050 -1434h-260zM262 1108q0 -192 147 -192q75 0 109 48t34 144q0 192 -147 192q-143 0 -143 -192zM1014 350q0 169 84 268 t242 99q161 0 241.5 -99.5t80.5 -267.5q0 -167 -84 -266.5t-242 -99.5q-155 0 -238.5 100.5t-83.5 265.5zM1193 350q0 -192 147 -192q75 0 109 48t34 144q0 192 -147 192q-143 0 -143 -192z" />
<glyph unicode="&#x26;" horiz-adv-x="1439" d="M59 384q0 141 74.5 254t222.5 180q-60 75 -89.5 140t-29.5 137q0 75 26.5 141.5t78 120.5t138 86t197.5 32q81 0 148 -20t113 -55t77 -82.5t45 -101.5t12 -113q-6 -243 -271 -369l195 -193q47 104 60 219h282q-13 -99 -52 -211.5t-92 -202.5l201 -198l-190 -197l-182 183 q-188 -175 -461 -175q-220 0 -361.5 121t-141.5 304zM364 418q0 -75 54.5 -129.5t165.5 -54.5q141 0 249 92l-298 294q-171 -71 -171 -202zM525 1095q0 -44 20 -82t77 -101q91 36 133 80t45 111q2 53 -33.5 95.5t-97.5 42.5q-67 0 -105.5 -44.5t-38.5 -101.5z" />
<glyph unicode="'" horiz-adv-x="403" d="M90 1536h249l-35 -399h-179z" />
<glyph unicode="(" horiz-adv-x="864" d="M108 567q0 295 145 523.5t422 384.5l111 -209q-209 -135 -308.5 -302t-99.5 -397t99.5 -398.5t308.5 -302.5l-111 -206q-277 156 -422 384.5t-145 522.5z" />
<glyph unicode=")" horiz-adv-x="864" d="M77 -134q209 135 309 303t100 398q0 229 -100 396.5t-309 302.5l111 209q277 -156 422.5 -385t145.5 -523t-145.5 -522.5t-422.5 -384.5z" />
<glyph unicode="*" horiz-adv-x="776" d="M81 1032l209 92l-209 97l72 122l182 -126l-18 221h143l-19 -221l183 126l71 -122l-208 -97l208 -92l-71 -129l-183 131l19 -221h-143l18 221l-182 -131z" />
<glyph unicode="+" horiz-adv-x="1277" d="M127 518v234h395v395h234v-395h395v-234h-395v-395h-234v395h-395z" />
<glyph unicode="," horiz-adv-x="454" d="M52 128q0 62 42.5 103t105.5 41q62 0 104 -41t42 -103q0 -81 -123 -284h-82l43 138q-56 5 -94 46.5t-38 99.5z" />
<glyph unicode="-" horiz-adv-x="700" d="M94 386v235h512v-235h-512z" />
<glyph unicode="." horiz-adv-x="505" d="M106 127q0 67 42 108t105 41q64 0 106 -41t42 -108q0 -56 -43.5 -101.5t-104.5 -45.5t-104 45.5t-43 101.5z" />
<glyph unicode="/" horiz-adv-x="1019" d="M-68 -348l869 1982h257l-868 -1982h-258z" />
<glyph unicode="0" horiz-adv-x="1370" d="M95 717q0 348 154 547.5t434 199.5q126 0 227.5 -41.5t168.5 -112t112 -167.5t64.5 -202.5t19.5 -223.5q0 -347 -156 -547.5t-436 -200.5q-128 0 -230 43t-167.5 114t-109.5 169.5t-62.5 202.5t-18.5 219zM394 717q0 -231 64.5 -348t224.5 -117q83 0 140.5 31.5t90 94 t47 145t14.5 194.5q0 90 -8.5 160t-29.5 128.5t-54 96.5t-83 59t-117 21q-160 0 -224.5 -117t-64.5 -348z" />
<glyph unicode="1" horiz-adv-x="763" d="M30 1301l573 163v-1464h-299v1122l-198 -56z" />
<glyph unicode="2" horiz-adv-x="1204" d="M81 0q0 91 16.5 172t41.5 141t66 115.5t77 92t89.5 75t88 59.5t86.5 49q108 59 156.5 93.5t79.5 83.5q29 46 33 101t-16 103t-73 80t-129 32q-81 0 -177 -35.5t-187 -110.5l-120 239q139 96 244.5 135t254.5 39q213 0 350 -115t151 -299q12 -151 -57.5 -272t-169.5 -193 q-67 -47 -173 -101.5t-177 -101.5t-110 -110h659v-272h-1004z" />
<glyph unicode="3" horiz-adv-x="1179" d="M54 133l125 231q73 -54 169.5 -86.5t187.5 -32.5q126 0 194.5 47t57.5 164q-20 190 -280 190h-175v241h177q64 0 111 14t72 39t37.5 52t14.5 59q6 86 -56.5 124t-168.5 28q-144 -10 -281 -72l-107 241q229 92 444 92q221 0 343 -110.5t122 -280.5q0 -104 -58 -190 t-140 -111q103 -30 174 -129.5t71 -226.5q0 -215 -138.5 -331t-375.5 -116q-153 0 -310 52.5t-210 111.5z" />
<glyph unicode="4" horiz-adv-x="1284" d="M45 343q141 184 215.5 417.5t74.5 431.5h266q0 -147 -33 -307.5t-89 -293.5h281v863h292v-863h157v-248h-157v-343h-292v343h-715z" />
<glyph unicode="5" horiz-adv-x="1208" d="M65 102l102 254q141 -99 319 -114q157 -13 241 52.5t84 202.5q0 121 -88 177t-243 56q-152 0 -333 -53v757h917v-260h-630v-239q68 11 135.5 12t135 -9t127.5 -31.5t112 -59t89.5 -87t59 -119t21.5 -152.5q0 -104 -33.5 -191t-89.5 -147t-130 -101.5t-155 -61t-164 -19.5 q-279 0 -477 133z" />
<glyph unicode="6" horiz-adv-x="1284" d="M99 676q0 184 46 334.5t127.5 249.5t192.5 152.5t242 53.5q136 0 240 -49.5t201 -159.5l-165 -191q-111 149 -272 149q-197 0 -283 -211q-27 -69 -40 -172q121 118 318 118q149 0 259 -65t164 -172t54 -242q0 -110 -43.5 -205.5t-115.5 -159.5t-166 -100.5t-194 -36.5 q-279 0 -422 181t-143 526zM383 556q13 -172 91 -254.5t201 -71.5q87 8 147.5 73t60.5 186q0 122 -56.5 186.5t-165.5 64.5q-105 0 -176.5 -50t-101.5 -134z" />
<glyph unicode="7" horiz-adv-x="1210" d="M113 1174v260h1021q-18 -303 -178 -541q-35 -52 -83.5 -110t-87.5 -103t-79.5 -99.5t-73.5 -122t-55 -147.5q-35 -128 -35 -311h-298q0 178 47.5 339.5t118 278t171.5 229.5q87 98 136 173.5t73 153.5h-677z" />
<glyph unicode="8" horiz-adv-x="1230" d="M75 416q0 129 76 227.5t193 128.5q-96 25 -158 109.5t-62 191.5q0 84 29.5 151.5t78 111.5t113.5 73.5t132.5 42t139.5 12.5q100 0 187 -24t156 -71t109 -123t40 -173q0 -107 -62 -191.5t-158 -109.5q117 -30 193 -128.5t76 -227.5q0 -114 -41 -200.5t-115.5 -140 t-171 -80t-213.5 -26.5q-67 0 -128 8.5t-124 27t-114 53t-91 82.5t-62.5 118.5t-22.5 157.5zM368 430q0 -192 249 -201q248 9 248 201q0 98 -63.5 151t-184.5 53q-125 0 -187 -58t-62 -146zM404 1048q0 -77 54.5 -120t156.5 -43q108 0 160.5 47t52.5 116q0 160 -211 164 q-93 -2 -153 -39.5t-60 -124.5z" />
<glyph unicode="9" horiz-adv-x="1284" d="M65 965q0 146 74 262.5t191.5 177.5t252.5 61q280 0 423 -180.5t143 -525.5q0 -184 -46 -334.5t-128 -250t-193 -153t-242 -53.5q-136 0 -239.5 49.5t-200.5 159.5l164 192q111 -149 273 -149q197 0 283 211q28 69 40 171q-121 -118 -318 -118q-112 0 -203.5 37.5 t-150.5 103t-91 152.5t-32 187zM364 947q0 -122 56.5 -187t165.5 -65q105 0 176.5 50t101.5 134q-13 172 -90.5 254.5t-200.5 71.5q-87 -8 -148 -72.5t-61 -185.5z" />
<glyph unicode=":" horiz-adv-x="532" d="M119 128q0 62 43 104.5t105 42.5t104 -42.5t42 -104.5t-42 -105t-104 -43t-105 43t-43 105zM119 898q0 63 42.5 104.5t105.5 41.5q62 0 104 -41.5t42 -104.5t-42 -106t-104 -43t-105 43.5t-43 105.5z" />
<glyph unicode=";" horiz-adv-x="475" d="M62 128q0 62 42.5 103t105.5 41q62 0 104 -41t42 -103q0 -81 -123 -284h-82l43 138q-56 5 -94 46.5t-38 99.5zM62 898q0 63 42.5 104.5t105.5 41.5q62 0 104 -41.5t42 -104.5t-42 -106t-104 -43t-105 43.5t-43 105.5z" />
<glyph unicode="&#x3c;" horiz-adv-x="1390" d="M131 637l1087 469v-226l-579 -237l579 -243v-255z" />
<glyph unicode="=" horiz-adv-x="1294" d="M135 333v235h1024v-235h-1024zM135 743v234h1024v-234h-1024z" />
<glyph unicode="&#x3e;" horiz-adv-x="1390" d="M172 145v255l579 243l-577 237v226l1085 -469z" />
<glyph unicode="?" horiz-adv-x="976" d="M32 1372q222 91 436 94q212 0 329 -112t119 -287q0 -88 -31 -162t-81.5 -123t-112 -79t-126.5 -38v-193h-280v361q154 0 253 54t99 155q0 179 -207 179q-168 0 -304 -82zM273 128q0 62 43 104.5t105 42.5t104 -42.5t42 -104.5t-42 -105t-104 -43t-105 43t-43 105z" />
<glyph unicode="@" horiz-adv-x="1982" d="M96 582q0 181 70 346t189.5 286t286 193t351.5 72q184 0 350.5 -67t285 -178t188 -259.5t69.5 -306.5q0 -178 -48.5 -305.5t-156.5 -201t-270 -73.5q-102 0 -171.5 35t-99.5 91q-154 -114 -323 -114q-88 0 -158 26t-113 71.5t-70.5 106.5t-31 131t7.5 145 q16 95 59.5 180.5t109.5 153.5t160.5 107.5t203.5 39.5q152 0 255 -97l10 58h239q-11 -66 -32 -184q-61 -347 -66 -441q-6 -120 39 -155q31 -23 96 -23q110 0 178.5 120.5t68.5 324.5q0 133 -60 261t-162 226.5t-249 158.5t-309 60q-220 0 -400.5 -106.5t-282 -287 t-101.5 -394.5q0 -216 101.5 -395t286 -284.5t413.5 -105.5q140 0 252.5 32.5t232.5 100.5l57 -88q-252 -153 -542 -153q-192 0 -363 71t-291 191.5t-190 285t-70 345.5zM725.5 482q4.5 -48 19.5 -85.5t50.5 -60.5t86.5 -23q76 0 145 35.5t119 89.5l45 254q-25 72 -79.5 113 t-132.5 41q-101 0 -164 -77t-83 -189q-11 -50 -6.5 -98z" />
<glyph unicode="A" horiz-adv-x="1486" d="M32 0l712 1475l711 -1475h-316l-111 248h-569l-112 -248h-315zM564 483h359l-179 399z" />
<glyph unicode="B" horiz-adv-x="1347" d="M149 0v1434h566q223 0 350 -96.5t127 -268.5q0 -255 -230 -319q145 -25 228.5 -108.5t83.5 -235.5q0 -200 -132.5 -303t-371.5 -103h-621zM444 255h201q79 0 131.5 5.5t101.5 22.5t73 52t24 89q0 37 -12 66.5t-31 49t-51 33.5t-62.5 21.5t-74.5 12t-78.5 5.5t-83.5 1 h-138v-358zM444 862h111q74 0 127.5 5.5t106 21.5t80.5 50t28 85q0 86 -77 119.5t-222 33.5h-154v-315z" />
<glyph unicode="C" horiz-adv-x="1439" d="M96 717q0 175 50.5 316t142.5 235.5t220.5 145t283.5 50.5q176 0 332 -73.5t256 -214.5l-222 -179q-55 83 -157 137.5t-203 54.5q-202 0 -302.5 -125t-100.5 -347q0 -220 101 -346t302 -126q95 0 200 56t160 136l222 -175q-103 -142 -259.5 -217.5t-328.5 -75.5 q-143 0 -261 41t-197.5 111t-134 166.5t-79.5 204t-25 225.5z" />
<glyph unicode="D" horiz-adv-x="1476" d="M149 0v1434h492q180 0 322.5 -55.5t232.5 -153.5t137 -227.5t47 -282.5q0 -141 -37 -258.5t-103.5 -201.5t-159 -141.5t-203 -85.5t-236.5 -28h-492zM444 274h197q75 0 136.5 12t119.5 42.5t97.5 79t63 126.5t23.5 181t-23.5 182t-63 128t-97.5 80t-119.5 43t-136.5 12 h-197v-886z" />
<glyph unicode="E" horiz-adv-x="1273" d="M149 0v1434h1034v-273h-741v-300h684v-260h-684v-329h741v-272h-1034z" />
<glyph unicode="F" horiz-adv-x="1247" d="M149 0v1434h1028v-273h-735v-300h678v-260h-678v-601h-293z" />
<glyph unicode="G" horiz-adv-x="1507" d="M96 717q0 173 56 315.5t151.5 236t221 144.5t266.5 51q395 0 602 -288l-203 -162q-66 86 -167.5 139t-220.5 53q-190 0 -299.5 -135t-109.5 -354q0 -217 108.5 -352.5t289.5 -135.5q191 0 309 108v237h-256v235h549v-547q-212 -293 -602 -293q-165 0 -299.5 62 t-219.5 166.5t-130.5 238t-45.5 281.5z" />
<glyph unicode="H" horiz-adv-x="1523" d="M147 0v1434h292v-582h645v582h293v-1434h-293v593h-645v-593h-292z" />
<glyph unicode="I" horiz-adv-x="612" d="M160 0v1434h293v-1434h-293z" />
<glyph unicode="J" horiz-adv-x="1021" d="M9 135l150 215q95 -115 239 -115q53 0 87 9.5t61 36t39.5 76.5t12.5 128v949h293v-1026v-11q0 -428 -457 -428q-287 0 -425 166z" />
<glyph unicode="K" horiz-adv-x="1384" d="M149 0v1434h293v-655l517 655h327l-562 -683l656 -751h-360l-468 543l-110 -134v-409h-293z" />
<glyph unicode="L" horiz-adv-x="1236" d="M149 0v1434h293v-1174h735v-260h-1028z" />
<glyph unicode="M" horiz-adv-x="1730" d="M147 0v1487l719 -698l719 698v-1487h-293v838l-426 -412l-427 412v-838h-292z" />
<glyph unicode="N" horiz-adv-x="1484" d="M147 0v1487l899 -875v822h293v-1488l-900 870v-816h-292z" />
<glyph unicode="O" horiz-adv-x="1632" d="M95 717q0 150 47.5 283.5t135.5 237.5t227.5 165t310.5 61t310.5 -61t227.5 -165t135.5 -237.5t47.5 -283.5q0 -175 -57.5 -318t-156.5 -236t-229 -143.5t-278 -50.5q-150 0 -281 51t-229 144.5t-154.5 236t-56.5 316.5zM398 717q0 -226 108.5 -350.5t309.5 -124.5 t309.5 124.5t108.5 350.5q0 227 -108 351t-310 124t-310 -124t-108 -351z" />
<glyph unicode="P" horiz-adv-x="1239" d="M147 0v1434h436q155 0 272.5 -38t189 -108t107 -161.5t35.5 -203.5q0 -233 -139.5 -356t-374.5 -123h-234v-444h-292zM439 691h224q119 0 175 53t56 182t-79.5 194.5t-274.5 65.5h-101v-495z" />
<glyph unicode="Q" horiz-adv-x="1634" d="M96 717q0 150 47.5 283.5t136 237.5t228 165t310.5 61t310.5 -61t227.5 -165t135.5 -237.5t47.5 -283.5q0 -197 -71 -350t-198 -251l128 -224l-218 -124l-131 235q-113 -34 -231 -34q-150 0 -281 51t-229.5 144.5t-155 236t-56.5 316.5zM400 717q0 -226 108 -350.5 t309 -124.5t309.5 124.5t108.5 350.5q0 227 -108 351t-310 124t-309.5 -123.5t-107.5 -351.5z" />
<glyph unicode="R" horiz-adv-x="1275" d="M147 0v1434h456q277 0 430.5 -135.5t153.5 -379.5q0 -306 -238 -433l279 -486h-326l-238 416l-32 -1h-193v-415h-292zM439 662h121q48 0 82 2t71.5 8t62.5 17.5t49 30.5t38 46.5t22.5 66t8.5 88.5q0 66 -19.5 115t-49.5 77.5t-76 45t-89.5 22t-99.5 5.5h-121v-524z" />
<glyph unicode="S" horiz-adv-x="1165" d="M61 110l132 228q112 -80 251 -104q46 -8 88 -8q84 0 151 32q100 48 100 155q0 81 -67.5 131.5t-195.5 95.5q-75 26 -124 45.5t-105 47.5t-91 58t-65 69.5t-44 89.5t-14 111q0 108 44.5 189.5t118.5 126.5q76 45 172 68q84 20 174 20q14 -1 28 -1q106 -4 210 -25.5 t196 -60.5l-95 -235q-81 39 -175 61q-88 20 -168 20h-11q-84 -2 -139.5 -39.5t-55.5 -109.5q0 -44 33.5 -79.5t79.5 -56.5t117 -43q116 -36 197.5 -74.5t147.5 -93t98.5 -129t32.5 -171.5q0 -111 -37.5 -196.5t-100 -137t-144.5 -83.5q-81 -31 -169 -39q-47 -4 -95 -5h-16 q-32 0 -66 3q-90 6 -167 27t-137 50t-89 63z" />
<glyph unicode="T" d="M62 1174v260h1112v-260h-410v-1174h-293v1174h-409z" />
<glyph unicode="U" horiz-adv-x="1454" d="M131 618v816h293v-775q0 -222 67 -324t234 -102q170 0 238 101.5t68 324.5v775h293v-813q0 -312 -153.5 -482t-445.5 -170t-443 169t-151 480z" />
<glyph unicode="V" horiz-adv-x="1462" d="M33 1434h315l384 -882l382 882h316l-699 -1507z" />
<glyph unicode="W" horiz-adv-x="2134" d="M35 1434h307l337 -837l389 870l387 -869l337 836h307l-628 -1508l-403 933l-405 -933z" />
<glyph unicode="X" horiz-adv-x="1536" d="M41 0l550 735l-519 699h336l360 -491l359 491h336l-520 -697l551 -737h-336l-390 530l-390 -530h-337z" />
<glyph unicode="Y" horiz-adv-x="1396" d="M12 1434h319l368 -571l367 571h319l-540 -828v-606h-293v606z" />
<glyph unicode="Z" horiz-adv-x="1523" d="M91 0l836 1175h-718v259h1226l-826 -1162h790v-272h-1308z" />
<glyph unicode="[" horiz-adv-x="866" d="M147 -348v1823h630v-236h-360v-1352h360v-235h-630z" />
<glyph unicode="\" horiz-adv-x="1058" d="M-34 1634h270l869 -1982h-271z" />
<glyph unicode="]" horiz-adv-x="866" d="M90 -113h361v1352h-361v236h631v-1823h-631v235z" />
<glyph unicode="^" horiz-adv-x="958" d="M100 1010l379 469l379 -469h-239l-142 187l-163 -187h-214z" />
<glyph unicode="_" horiz-adv-x="1302" d="M-4 -126h1311v-206h-1311v206z" />
<glyph unicode="`" horiz-adv-x="501" d="M0 1638h257l246 -297h-208z" />
<glyph unicode="a" horiz-adv-x="1122" d="M63 324q0 68 21.5 129t64.5 112t117.5 81t171.5 30q141 0 297 -55v20q0 111 -45 154.5t-129 43.5q-164 0 -319 -98l-99 189q82 49 213 85t265 36q103 0 179 -27.5t120.5 -76.5t66 -111t21.5 -138v-698h-244q-23 54 -28 103q-48 -60 -125.5 -99t-172.5 -39 q-174 0 -274.5 106t-100.5 253zM344 344q0 -166 154 -166q55 0 121.5 27.5t115.5 78.5v162q-128 55 -237 55q-68 0 -111 -41.5t-43 -115.5z" />
<glyph unicode="b" horiz-adv-x="1257" d="M123 0v1475h281v-584q141 156 327 156q146 0 249 -71.5t151.5 -191.5t48.5 -278q0 -159 -48.5 -279.5t-151.5 -192t-249 -71.5q-186 0 -328 151q-4 -56 -26 -114h-254zM404 363q41 -76 110.5 -118t152.5 -42q110 0 162 82.5t52 220.5t-52 220t-162 82q-83 0 -152.5 -42 t-110.5 -118v-285z" />
<glyph unicode="c" horiz-adv-x="1019" d="M73 514q0 260 134 405.5t395 145.5q96 0 204.5 -36.5t166.5 -94.5l-93 -189q-47 38 -122 67t-152 29q-115 0 -180 -84t-65 -243t65 -243t180 -84q77 0 152 29t122 67l93 -189q-58 -58 -166.5 -94.5t-204.5 -36.5q-261 0 -395 145.5t-134 405.5z" />
<glyph unicode="d" horiz-adv-x="1257" d="M78 506q0 158 48.5 278t151.5 191.5t249 71.5q187 0 328 -156v584h280v-1475h-254q-21 56 -25 114q-142 -151 -329 -151q-146 0 -249 71.5t-151.5 192t-48.5 279.5zM378 506q0 -142 55 -222.5t159 -80.5q83 0 152.5 42t110.5 118v285q-41 76 -110.5 118t-152.5 42 q-105 0 -159.5 -80t-54.5 -222z" />
<glyph unicode="e" horiz-adv-x="1128" d="M73 506q0 248 137.5 394.5t356.5 146.5q110 0 194.5 -31t139.5 -86.5t90 -139.5t49.5 -182t14.5 -222h-695q17 -96 71 -151.5t146 -55.5q125 0 267 81l96 -186q-69 -48 -166.5 -79.5t-186.5 -31.5q-106 0 -193 30.5t-146 82t-99 122t-58 147.5t-18 161zM353 568h446 q-6 126 -56 193t-170 67q-204 0 -220 -260z" />
<glyph unicode="f" horiz-adv-x="724" d="M55 797v227h147v18v20q0 95 8 166q10 77 34.5 134t61.5 89t96 45q45 11 99 11q16 0 33 -1q73 -4 173 -25v-262q-37 9 -62.5 15t-49.5 9.5t-38.5 2.5t-28.5 -4.5t-20 -12.5t-13.5 -21.5t-8 -30.5t-3.5 -40t-1 -51t0 -62h225v-227h-225v-797h-280v797h-147z" />
<glyph unicode="g" horiz-adv-x="1257" d="M78 518q0 159 48.5 279.5t151.5 192t249 71.5q186 0 328 -151q4 56 26 114h254v-950q0 -264 -142.5 -401.5t-397.5 -137.5q-122 0 -261.5 38t-197.5 93l91 207q60 -46 154.5 -76.5t196.5 -30.5q126 0 201.5 63.5t75.5 183.5v120q-141 -156 -328 -156q-146 0 -249 71.5 t-151.5 192t-48.5 277.5zM378 518q0 -142 54.5 -222t159.5 -80q83 0 152.5 42t110.5 118v285q-41 76 -110.5 118t-152.5 42q-104 0 -159 -80.5t-55 -222.5z" />
<glyph unicode="h" d="M123 0v1475h281v-584q64 70 164.5 115t201.5 45q171 0 260.5 -103t89.5 -270v-678h-280v593q0 103 -40 157q-41 56 -105 58h-9q-60 0 -132 -32q-76 -34 -150 -102v-674h-281z" />
<glyph unicode="i" horiz-adv-x="581" d="M129 1365q0 67 47.5 114t115.5 47t114.5 -47t46.5 -114q0 -68 -47 -115.5t-114 -47.5q-68 0 -115.5 48t-47.5 115zM150 0v1024h280v-1024h-280z" />
<glyph unicode="j" horiz-adv-x="604" d="M-94 -195q45 -12 72 -18.5t57 -10.5t45.5 -5t33 5t25 13t15.5 26t10.5 37t5 52t2.5 65v82v24v949h279v-1024q0 -226 -53.5 -337.5t-174.5 -137.5q-45 -10 -100 -10q-94 0 -217 28v262zM151 1365q0 67 47.5 114t115.5 47t114.5 -47t46.5 -114q0 -68 -47 -115.5t-114 -47.5 q-68 0 -115.5 48t-47.5 115z" />
<glyph unicode="k" horiz-adv-x="1105" d="M123 0v1475h281v-898l349 447h300l-388 -473l435 -551h-328l-265 358l-103 -125v-233h-281z" />
<glyph unicode="l" horiz-adv-x="544" d="M134 0v1475h278v-1475h-278z" />
<glyph unicode="m" horiz-adv-x="1730" d="M123 0v1024h250q15 -31 24 -114q144 141 311 141q198 0 264 -150q148 150 340 150q305 0 305 -373v-678h-280v645q0 60 -12 97.5t-51 50.5q-22 11 -52 11q-32 0 -73 -12q-80 -23 -136 -76v-716h-280v645q0 60 -12 97.5t-50 50.5q-23 12 -53 12q-34 0 -76 -14 q-82 -27 -138 -87v-704h-281z" />
<glyph unicode="n" d="M123 0v1024h250q17 -33 27 -137q64 71 165.5 117.5t204.5 46.5q171 0 260.5 -103t89.5 -270v-678h-280v593q0 103 -40 157q-41 56 -105 58h-9q-60 0 -132 -32q-76 -34 -150 -102v-674h-281z" />
<glyph unicode="o" horiz-adv-x="1173" d="M73 506q0 255 143.5 398t371.5 143q241 0 376.5 -148.5t135.5 -392.5q0 -245 -135.5 -394t-376.5 -149q-243 0 -379 149t-136 394zM356 506q0 -141 58.5 -229.5t173.5 -88.5q113 0 171 88.5t58 229.5q0 140 -57.5 226.5t-171.5 86.5q-115 0 -173.5 -86.5t-58.5 -226.5z " />
<glyph unicode="p" horiz-adv-x="1257" d="M123 -410v1434h254q22 -59 26 -114q142 151 328 151q146 0 249 -71.5t151.5 -192t48.5 -279.5q0 -158 -48.5 -278t-151.5 -191.5t-249 -71.5q-186 0 -327 156v-543h-281zM404 376q41 -76 110.5 -118t152.5 -42q105 0 159.5 80t54.5 222t-55 222.5t-159 80.5 q-83 0 -152.5 -42t-110.5 -118v-285z" />
<glyph unicode="q" horiz-adv-x="1257" d="M78 518q0 159 48.5 279.5t151.5 192t249 71.5q187 0 329 -151q4 58 25 114h254v-1434h-280v543q-141 -156 -328 -156q-146 0 -249 71.5t-151.5 191.5t-48.5 278zM378 518q0 -142 54.5 -222t159.5 -80q83 0 152.5 42t110.5 118v285q-41 76 -110.5 118t-152.5 42 q-104 0 -159 -80.5t-55 -222.5z" />
<glyph unicode="r" horiz-adv-x="837" d="M123 0v1024h250q14 -32 22 -112q135 131 257 131q73 0 141 -46l-76 -230q-53 40 -117 40q-17 0 -35 -3q-84 -14 -161 -97v-707h-281z" />
<glyph unicode="s" horiz-adv-x="923" d="M38 125l118 180q48 -51 115 -81.5t135 -30.5q65 0 113 29.5t48 88.5q0 27 -13.5 49.5t-31.5 37t-51 28.5t-58.5 21.5t-66.5 18.5q-72 20 -122 42t-91 54.5t-61 78.5t-20 107q0 142 105.5 221.5t265.5 79.5q94 0 198.5 -27t176.5 -70l-79 -188q-62 38 -135 60.5t-130 22.5 q-124 0 -124 -82q0 -19 11 -35t23 -25.5t39 -20t40.5 -14t44.5 -12.5q185 -51 273 -126.5t88 -214.5q0 -85 -35.5 -153t-94.5 -109t-130 -62.5t-146 -21.5q-137 0 -244 46t-161 108z" />
<glyph unicode="t" horiz-adv-x="780" d="M54 797v227h147v451h280v-451h224v-227h-224v-297q0 -170 10 -212q12 -54 56 -62q9 -2 21 -1q45 0 137 23v-254q-99 -20 -171 -25q-21 -1 -40 -1q-48 0 -90 8q-58 12 -95 43t-62 86.5t-35.5 133.5t-10.5 187v371h-147z" />
<glyph unicode="u" d="M114 346v678h281v-593q0 -103 41 -157q40 -56 104 -58h9q59 0 131 32q76 34 151 102v674h281v-1024h-250q-17 33 -27 137q-64 -71 -165.5 -117.5t-204.5 -46.5q-171 0 -261 103t-90 270z" />
<glyph unicode="v" horiz-adv-x="1118" d="M33 1024h304l229 -554l227 554h292l-521 -1098z" />
<glyph unicode="w" horiz-adv-x="1693" d="M40 1024h294l238 -540l276 573l275 -573l238 540h294l-510 -1098l-297 600l-298 -600z" />
<glyph unicode="x" horiz-adv-x="1107" d="M34 2l370 512l-370 512h296l223 -308l224 308h297l-371 -512l371 -512h-297l-225 306l-222 -306h-296z" />
<glyph unicode="y" horiz-adv-x="1181" d="M36 1024h304l250 -678l278 678h276l-473 -1120q-73 -180 -166 -268t-203 -92q-9 -1 -19 -1q-103 0 -228 47l74 219q66 -30 109 -36q9 -1 18 -1q33 0 62 18q37 23 65 72t61 138z" />
<glyph unicode="z" horiz-adv-x="1044" d="M52 0l507 799h-423v225h856l-504 -799h442v-225h-878z" />
<glyph unicode="{" horiz-adv-x="929" d="M77 458v239h33q133 0 187.5 61.5t54.5 187.5q0 158 2 184q11 139 88 217q102 101 356 148l55 -221q-38 -10 -68.5 -19t-55 -20.5t-43 -20.5t-32 -23.5t-23 -24.5t-15.5 -29t-9 -30.5t-5 -36.5t-2 -40v-46v-4v-57.5t-1.5 -54.5t-5 -55t-9.5 -49.5t-15.5 -49.5t-24 -42 t-33 -39t-44.5 -30t-57 -25q40 -13 70.5 -33.5t50.5 -41t34 -54t20.5 -56.5t10 -65t4 -64t0.5 -69v-20q0 -110 13 -148q20 -62 100 -99q51 -24 140 -47l-55 -221q-95 17 -167 41.5t-119 53.5t-80 64t-48 73.5t-24 81t-8.5 88t0.5 93.5v54q0 126 -54.5 187.5t-187.5 61.5h-33 z" />
<glyph unicode="|" horiz-adv-x="686" d="M223 -348v1986h239v-1986h-239z" />
<glyph unicode="}" horiz-adv-x="929" d="M77 -119q38 10 68.5 19t55 20.5t43 20.5t32 23.5t23 24.5t15.5 29t9 30.5t5 36.5t2 40v46v4v20q0 45 0.5 68.5t4 64.5t10 65t20.5 56.5t34 53.5t50.5 41.5t70.5 33.5q-31 10 -57 25t-44.5 30t-33 39t-24 42t-15.5 49.5t-9.5 49.5t-5 55t-1.5 54.5v57.5q0 110 -13 148 q-20 62 -100 99q-51 24 -140 47l55 221q83 -15 148.5 -36t111.5 -45t80 -53t53 -60.5t31.5 -67t16 -73.5t5.5 -79t0 -84v-51q0 -126 54.5 -187.5t187.5 -61.5h33v-239h-33q-133 0 -187.5 -61.5t-54.5 -187.5q0 -158 -1 -171q-8 -142 -80 -220q-101 -109 -365 -158z" />
<glyph unicode="~" horiz-adv-x="1429" d="M104 611q36 64 76.5 109t78 72t86 39.5t87 15t94 -6.5t95 -19.5t102.5 -29.5q74 -23 117.5 -36t90.5 -23t71 -13.5t53 0.5t43 11t35.5 25.5t35.5 37t38 52.5l118 -92q-38 -70 -76 -119.5t-73.5 -80.5t-76 -46t-78.5 -19t-88 4t-96.5 19.5t-111.5 29.5q-25 7 -38 11 q-28 8 -76.5 22.5t-69 20.5t-56.5 15t-53 10t-44.5 1t-44 -7.5t-38.5 -19t-41 -30.5t-40 -45z" />
<glyph unicode="&#xa1;" horiz-adv-x="534" d="M120 898q0 63 42 106t104 43q66 0 107 -41.5t41 -107.5q0 -62 -43 -104.5t-105 -42.5t-104 42.5t-42 104.5zM140 -410v962h252v-962h-252z" />
<glyph unicode="&#xa2;" horiz-adv-x="1038" d="M81 514q0 216 92.5 354t273.5 180v187h243v-176q85 -13 165 -46t126 -79l-93 -189q-47 38 -121.5 67t-151.5 29q-115 0 -180.5 -84t-65.5 -243t65.5 -243t180.5 -84q77 0 151.5 29t121.5 67l93 -189q-46 -46 -126 -79t-165 -46v-174h-243v185q-181 42 -273.5 180 t-92.5 354z" />
<glyph unicode="&#xa3;" horiz-adv-x="1155" d="M107 0v260q68 0 122 61t54 152v134h-176v260h176v208q0 93 29.5 166t79.5 117.5t115 73.5t136.5 38.5t144 6.5t137 -17.5t116.5 -36.5l-72 -239q-35 18 -84 30.5t-106 11t-104.5 -19.5t-79.5 -67.5t-32 -126.5v-145h191v-260h-191v-144q0 -119 -77 -203h596v-260h-975z " />
<glyph unicode="&#xa5;" horiz-adv-x="1316" d="M21 1434h307l331 -520l331 520h307l-492 -766h235v-181h-235v-119h235v-181h-235v-187h-293v187h-242v181h242v119h-242v181h242z" />
<glyph unicode="&#xa6;" horiz-adv-x="686" d="M223 328h239v-676h-239v676zM223 963v675h239v-675h-239z" />
<glyph unicode="&#xa7;" horiz-adv-x="1216" d="M102 535q0 109 50.5 179t161.5 113q-177 120 -177 277q0 123 58.5 206.5t153 120t213.5 43t240.5 -16.5t233.5 -68l-93 -224q-64 36 -151 60t-171 28t-142 -32t-58 -113q0 -27 15.5 -51t35.5 -39.5t55.5 -32t58 -24.5t61.5 -21q45 -14 76 -24t73.5 -25.5t72.5 -30 t66 -35.5t60 -42.5t49 -50t39.5 -60t23.5 -71t9 -83.5q0 -202 -200 -288q165 -107 165 -281q0 -123 -58.5 -206.5t-153 -120t-213.5 -43t-240.5 16.5t-233.5 68l93 217q64 -36 151 -59t171 -25.5t142 34.5t58 114q0 27 -15.5 51t-35 39.5t-55.5 32t-58 24t-62 20.5 q-58 18 -97.5 31t-93 35t-89 44t-74.5 54.5t-62 68.5t-38 85t-15 105zM387 541q0 -57 43 -94.5t118 -66.5q121 -37 202 -1.5t81 133.5q0 61 -48 99.5t-133 68.5q-109 28 -186 -8t-77 -131z" />
<glyph unicode="&#xa8;" horiz-adv-x="770" d="M0 1525q0 62 44 104t107 42q62 0 104 -42t42 -104t-42 -105t-104 -43q-63 0 -107 43t-44 105zM472 1525q0 62 44.5 104t105.5 42q63 0 105 -42t42 -104q0 -63 -42 -105.5t-105 -42.5q-61 0 -105.5 43t-44.5 105z" />
<glyph unicode="&#xa9;" horiz-adv-x="1691" d="M105 715q0 149 58 286t157 237t237 160t291 60t290.5 -58.5t236 -157.5t156 -235.5t57.5 -287.5q0 -199 -98.5 -370t-270 -272.5t-375.5 -101.5t-374.5 99.5t-267.5 269.5t-97 371zM222 715q0 -170 81 -314t224.5 -228.5t316.5 -84.5q175 0 319.5 85t226 229.5 t81.5 316.5q0 127 -48 242.5t-130.5 200t-198.5 134.5t-246 50q-175 0 -319.5 -85t-225.5 -229.5t-81 -316.5zM488 717q0 185 92 287t272 102q73 0 152 -26.5t119 -67.5l-60 -152q-34 24 -95 47.5t-109 23.5q-80 0 -122.5 -54t-42.5 -160t42.5 -160t122.5 -54 q48 0 109.5 23.5t94.5 46.5l60 -151q-40 -41 -119 -67.5t-152 -26.5q-180 0 -272 102t-92 287z" />
<glyph unicode="&#xab;" horiz-adv-x="1157" d="M73 510l338 461l183 -122l-229 -339l229 -346l-183 -121zM556 510l338 461l183 -122l-229 -339l229 -346l-183 -121z" />
<glyph unicode="&#xad;" horiz-adv-x="700" d="M94 386v235h512v-235h-512z" />
<glyph unicode="&#xae;" horiz-adv-x="763" d="M26 1116q0 147 104 253t252 106q150 0 253.5 -104.5t103.5 -252.5q0 -147 -104.5 -253.5t-252.5 -106.5q-150 0 -253 104.5t-103 253.5zM81 1116q0 -126 86.5 -215.5t214.5 -89.5q127 0 214 90t87 217q0 126 -86.5 214.5t-214.5 88.5q-127 0 -214 -89t-87 -216zM253 926 v385h121q81 0 125.5 -33t44.5 -96q0 -78 -66 -110l83 -146h-93l-71 127h-14h-43v-127h-87zM340 1127h22q62 0 79 9t17 46q0 33 -21 44t-75 11h-22v-110z" />
<glyph unicode="&#xaf;" horiz-adv-x="743" d="M0 1461v177h743v-177h-743z" />
<glyph unicode="&#xb0;" horiz-adv-x="739" d="M112 1415q0 104 80 183t180 79q102 0 179 -78.5t77 -183.5t-77 -183.5t-179 -78.5q-106 0 -183 77.5t-77 184.5zM245 1415q0 -55 36 -92t91 -37t91 37t36 92t-36 92t-91 37t-91 -37t-36 -92z" />
<glyph unicode="&#xb1;" horiz-adv-x="1277" d="M127 0v235h1024v-235h-1024zM127 707v234h395v313h234v-313h395v-234h-395v-313h-234v313h-395z" />
<glyph unicode="&#xb4;" horiz-adv-x="516" d="M0 1341l246 297h269l-307 -297h-208z" />
<glyph unicode="&#xb6;" horiz-adv-x="1204" d="M82 942q0 136 67.5 247.5t196 178t295.5 66.5h437v-1434h-293v481h-144q-261 0 -410 119t-149 342z" />
<glyph unicode="&#xb7;" horiz-adv-x="505" d="M106 657q0 62 43 104t105 42t104 -42t42 -104t-42 -105t-104 -43t-105 43t-43 105z" />
<glyph unicode="&#xb8;" horiz-adv-x="450" d="M0 -373l51 129q82 -65 178 -71q107 -6 107 67q0 59 -61 59q-43 0 -69 -30l-108 47l64 172h132l-48 -113q27 21 70 21q64 0 99.5 -46t35.5 -112q0 -78 -61 -131t-171 -53q-55 0 -121.5 18t-97.5 43z" />
<glyph unicode="&#xbb;" horiz-adv-x="1157" d="M81 164l229 346l-229 339l183 122l338 -461l-338 -467zM564 164l229 346l-229 339l183 122l338 -461l-338 -467z" />
<glyph unicode="&#xbf;" horiz-adv-x="976" d="M60 60q0 88 31 162t81.5 123t112 79t126.5 38v192h281v-361q-154 0 -253.5 -53.5t-99.5 -154.5q0 -180 208 -180q167 0 303 82l95 -233q-220 -90 -436 -93q-212 0 -329.5 112t-119.5 287zM410 999q0 62 42 105t104 43t105 -43t43 -105t-43 -104.5t-105 -42.5t-104 42.5 t-42 104.5z" />
<glyph unicode="&#xc0;" horiz-adv-x="1486" d="M33 0l711 1475l711 -1475h-316l-111 248h-569l-112 -248h-314zM366 1843h257l246 -297h-208zM564 483h359l-179 399z" />
<glyph unicode="&#xc1;" horiz-adv-x="1486" d="M32 0l712 1475l711 -1475h-316l-111 248h-569l-112 -248h-315zM564 483h359l-179 399zM606 1546l246 297h270l-308 -297h-208z" />
<glyph unicode="&#xc2;" horiz-adv-x="1486" d="M32 0l712 1475l711 -1475h-316l-111 248h-569l-112 -248h-315zM387 1546l240 297h244l240 -297h-196l-166 184l-166 -184h-196zM564 483h359l-179 399z" />
<glyph unicode="&#xc3;" horiz-adv-x="1486" d="M33 0l711 1475l711 -1475h-316l-111 248h-569l-112 -248h-314zM369 1617q30 71 65 116t69.5 65t78 22.5t81 -5.5t89.5 -27q58 -22 93.5 -33.5t66.5 -14.5t46 -0.5t33 20t28 34.5t30 55l78 -51q-19 -45 -38 -80t-36 -60.5t-37.5 -42t-37 -27.5t-41.5 -13.5t-43 -2.5 t-48.5 7.5t-52 14t-59.5 19.5q-20 6 -54 16.5t-48 14t-38.5 9t-36 3.5t-29 -5.5t-29 -14.5t-25.5 -27.5t-27 -40.5zM564 483h359l-179 399z" />
<glyph unicode="&#xc4;" horiz-adv-x="1486" d="M32 0l712 1475l711 -1475h-316l-111 248h-569l-112 -248h-315zM354 1730q0 62 44 104t107 42q62 0 104 -42t42 -104t-42 -105t-104 -43q-63 0 -107 43t-44 105zM564 483h359l-179 399zM827 1730q0 62 44 104t105 42q63 0 105 -42t42 -104q0 -63 -42 -105.5t-105 -42.5 q-61 0 -105 43t-44 105z" />
<glyph unicode="&#xc5;" horiz-adv-x="1486" d="M33 0l703 1459q-78 5 -134.5 64.5t-56.5 137.5q0 84 60.5 143.5t142.5 59.5t140.5 -59.5t58.5 -143.5q0 -83 -57 -142t-138 -61l703 -1458h-316l-111 248h-569l-112 -248h-314zM564 483h359l-179 399zM661 1661q0 -36 25.5 -61.5t61.5 -25.5t60 25.5t24 61.5t-24 61.5 t-60 25.5t-61.5 -25.5t-25.5 -61.5z" />
<glyph unicode="&#xc6;" horiz-adv-x="2076" d="M2 0l1052 1434h940v-273h-647v-300h590v-260h-590v-329h647v-272h-940v255h-527l-187 -255h-338zM708 502h346v471z" />
<glyph unicode="&#xc7;" horiz-adv-x="1439" d="M63 -377l51 129q82 -65 178 -71q107 -6 107 67q0 59 -62 59q-44 0 -69 -29l-107 46l63 172h132l-47 -113q27 21 70 21q64 0 99.5 -46t35.5 -112q0 -78 -61 -131t-171 -53q-55 0 -121.5 18t-97.5 43zM96 717q0 175 50.5 316t142.5 235.5t220.5 145t283.5 50.5 q176 0 332 -73.5t256 -214.5l-222 -179q-55 83 -157 137.5t-203 54.5q-202 0 -302.5 -125t-100.5 -347q0 -220 101 -346t302 -126q95 0 200 56t160 136l222 -175q-103 -142 -259.5 -217.5t-328.5 -75.5q-143 0 -261 41t-197.5 111t-134 166.5t-79.5 204t-25 225.5z" />
<glyph unicode="&#xc8;" horiz-adv-x="1273" d="M149 0v1434h1034v-273h-741v-300h684v-260h-684v-329h741v-272h-1034zM381 1843h256l246 -297h-208z" />
<glyph unicode="&#xc9;" horiz-adv-x="1273" d="M149 0v1434h1034v-273h-741v-300h684v-260h-684v-329h741v-272h-1034zM505 1546l246 297h269l-307 -297h-208z" />
<glyph unicode="&#xca;" horiz-adv-x="1273" d="M149 0v1434h1034v-273h-741v-300h684v-260h-684v-329h741v-272h-1034zM332 1546l240 297h244l239 -297h-195l-167 184l-165 -184h-196z" />
<glyph unicode="&#xcb;" horiz-adv-x="1273" d="M149 0v1434h1034v-273h-741v-300h684v-260h-684v-329h741v-272h-1034zM299 1730q0 62 43.5 104t106.5 42q62 0 104 -42t42 -104t-42 -105t-104 -43q-63 0 -106.5 43t-43.5 105zM771 1730q0 62 44.5 104t105.5 42q63 0 105 -42t42 -104q0 -63 -42 -105.5t-105 -42.5 q-61 0 -105.5 43t-44.5 105z" />
<glyph unicode="&#xcc;" horiz-adv-x="612" d="M-87 1843h256l246 -297h-208zM160 0v1434h293v-1434h-293z" />
<glyph unicode="&#xcd;" horiz-adv-x="612" d="M157 1546l245 297h270l-307 -297h-208zM160 0v1434h293v-1434h-293z" />
<glyph unicode="&#xce;" horiz-adv-x="612" d="M-48 1546l239 297h245l239 -297h-195l-167 184l-166 -184h-195zM160 0v1434h293v-1434h-293z" />
<glyph unicode="&#xcf;" horiz-adv-x="612" d="M-82 1730q0 62 44 104t107 42q62 0 104 -42t42 -104t-42 -105t-104 -43q-63 0 -107 43t-44 105zM160 0v1434h293v-1434h-293zM391 1730q0 62 44 104t105 42q63 0 105.5 -42t42.5 -104t-42.5 -105t-105.5 -43q-61 0 -105 43t-44 105z" />
<glyph unicode="&#xd0;" horiz-adv-x="1476" d="M149 0v1434h492q180 0 322.5 -55.5t232.5 -153.5t137 -227.5t47 -282.5q0 -141 -37 -258.5t-103.5 -201.5t-159 -141.5t-203 -85.5t-236.5 -28h-492zM444 274h197q75 0 136.5 12t119.5 42.5t97.5 79t63 126.5t23.5 181t-23.5 182t-63 128t-97.5 80t-119.5 43t-136.5 12 h-197v-336h290v-235h-290v-315z" />
<glyph unicode="&#xd1;" horiz-adv-x="1484" d="M147 0v1487l899 -875v822h293v-1488l-900 870v-816h-292zM368 1617q30 71 65 116t69.5 65t78 22.5t81 -5.5t89.5 -27q58 -22 93.5 -33.5t66.5 -14.5t46 -0.5t33 20t28 34.5t30 55l78 -51q-19 -45 -38 -80t-36 -60.5t-37.5 -42t-37 -27.5t-41.5 -13.5t-43 -2.5t-48.5 7.5 t-52 14t-59.5 19.5q-20 6 -54 16.5t-48 14t-38.5 9t-36 3.5t-29 -5.5t-29 -14.5t-25.5 -27.5t-27 -40.5z" />
<glyph unicode="&#xd2;" horiz-adv-x="1632" d="M95 717q0 150 47.5 283.5t135.5 237.5t227.5 165t310.5 61t310.5 -61t227.5 -165t135.5 -237.5t47.5 -283.5q0 -175 -57.5 -318t-156.5 -236t-229 -143.5t-278 -50.5q-150 0 -281 51t-229 144.5t-154.5 236t-56.5 316.5zM398 717q0 -226 108.5 -350.5t309.5 -124.5 t309.5 124.5t108.5 350.5q0 227 -108 351t-310 124t-310 -124t-108 -351zM439 1843h257l246 -297h-208z" />
<glyph unicode="&#xd3;" horiz-adv-x="1632" d="M95 717q0 150 47.5 283.5t135.5 237.5t227.5 165t310.5 61t310.5 -61t227.5 -165t135.5 -237.5t47.5 -283.5q0 -175 -57.5 -318t-156.5 -236t-229 -143.5t-278 -50.5q-150 0 -281 51t-229 144.5t-154.5 236t-56.5 316.5zM398 717q0 -226 108.5 -350.5t309.5 -124.5 t309.5 124.5t108.5 350.5q0 227 -108 351t-310 124t-310 -124t-108 -351zM665 1546l246 297h270l-308 -297h-208z" />
<glyph unicode="&#xd4;" horiz-adv-x="1632" d="M95 717q0 150 47.5 283.5t135.5 237.5t227.5 165t310.5 61t310.5 -61t227.5 -165t135.5 -237.5t47.5 -283.5q0 -175 -57.5 -318t-156.5 -236t-229 -143.5t-278 -50.5q-150 0 -281 51t-229 144.5t-154.5 236t-56.5 316.5zM398 717q0 -226 108.5 -350.5t309.5 -124.5 t309.5 124.5t108.5 350.5q0 227 -108 351t-310 124t-310 -124t-108 -351zM460 1546l239 297h245l239 -297h-195l-167 184l-166 -184h-195z" />
<glyph unicode="&#xd5;" horiz-adv-x="1632" d="M95 717q0 150 47.5 283.5t135.5 237.5t227.5 165t310.5 61t310.5 -61t227.5 -165t135.5 -237.5t47.5 -283.5q0 -175 -57.5 -318t-156.5 -236t-229 -143.5t-278 -50.5q-150 0 -281 51t-229 144.5t-154.5 236t-56.5 316.5zM398 717q0 -226 108.5 -350.5t309.5 -124.5 t309.5 124.5t108.5 350.5q0 227 -108 351t-310 124t-310 -124t-108 -351zM441 1617q30 71 65 116t69.5 65t78 22.5t81 -5.5t89.5 -27q58 -22 93.5 -33.5t66.5 -14.5t46 -0.5t33 20t28 34.5t30 55l78 -51q-19 -45 -38 -80t-36 -60.5t-37.5 -42t-37 -27.5t-41.5 -13.5 t-43 -2.5t-48.5 7.5t-52 14t-59.5 19.5q-20 6 -54 16.5t-48 14t-38.5 9t-36 3.5t-29 -5.5t-29 -14.5t-25.5 -27.5t-27 -40.5z" />
<glyph unicode="&#xd6;" horiz-adv-x="1632" d="M95 717q0 150 47.5 283.5t135.5 237.5t227.5 165t310.5 61t310.5 -61t227.5 -165t135.5 -237.5t47.5 -283.5q0 -175 -57.5 -318t-156.5 -236t-229 -143.5t-278 -50.5q-150 0 -281 51t-229 144.5t-154.5 236t-56.5 316.5zM398 717q0 -226 108.5 -350.5t309.5 -124.5 t309.5 124.5t108.5 350.5q0 227 -108 351t-310 124t-310 -124t-108 -351zM427 1730q0 62 43.5 104t106.5 42q62 0 104 -42t42 -104t-42 -105t-104 -43q-63 0 -106.5 43t-43.5 105zM899 1730q0 62 44 104t105 42q63 0 105.5 -42t42.5 -104t-42.5 -105t-105.5 -43 q-61 0 -105 43t-44 105z" />
<glyph unicode="&#xd7;" horiz-adv-x="1302" d="M134 272l166 -167l868 869l-166 166z" />
<glyph unicode="&#xd8;" horiz-adv-x="1685" d="M94 -164l219 322q-218 207 -218 559q0 150 47.5 283.5t135.5 237.5t227.5 165t310.5 61q188 0 339 -74l166 244h270l-256 -375q99 -103 150.5 -244t51.5 -298q0 -175 -57.5 -318t-156.5 -236t-229 -143.5t-278 -50.5q-172 0 -317 65l-135 -198h-270zM398 717 q0 -195 81 -316l518 758q-82 33 -181 33q-202 0 -310 -124t-108 -351zM657 266q71 -24 159 -24q201 0 309.5 124.5t108.5 350.5q0 180 -68 295z" />
<glyph unicode="&#xd9;" horiz-adv-x="1454" d="M131 618v816h293v-775q0 -222 67 -324t234 -102q170 0 238 101.5t68 324.5v775h293v-813q0 -312 -153.5 -482t-445.5 -170t-443 169t-151 480zM339 1843h256l246 -297h-208z" />
<glyph unicode="&#xda;" horiz-adv-x="1454" d="M131 618v816h293v-775q0 -222 67 -324t234 -102q170 0 238 101.5t68 324.5v775h293v-813q0 -312 -153.5 -482t-445.5 -170t-443 169t-151 480zM567 1546l245 297h270l-307 -297h-208z" />
<glyph unicode="&#xdb;" horiz-adv-x="1454" d="M131 618v816h293v-775q0 -222 67 -324t234 -102q170 0 238 101.5t68 324.5v775h293v-813q0 -312 -153.5 -482t-445.5 -170t-443 169t-151 480zM378 1546l239 297h244l240 -297h-196l-166 184l-166 -184h-195z" />
<glyph unicode="&#xdc;" horiz-adv-x="1454" d="M131 618v816h293v-775q0 -222 67 -324t234 -102q170 0 238 101.5t68 324.5v775h293v-813q0 -312 -153.5 -482t-445.5 -170t-443 169t-151 480zM344 1730q0 62 44 104t107 42q62 0 104 -42t42 -104t-42 -105t-104 -43q-63 0 -107 43t-44 105zM817 1730q0 62 44 104t105 42 q63 0 105 -42t42 -104q0 -63 -42 -105.5t-105 -42.5q-61 0 -105 43t-44 105z" />
<glyph unicode="&#xdd;" horiz-adv-x="1396" d="M12 1434h319l368 -571l367 571h319l-540 -828v-606h-293v606zM559 1546l246 297h269l-307 -297h-208z" />
<glyph unicode="&#xde;" horiz-adv-x="1214" d="M128 0v1434h293v-240h105q156 0 273 -35.5t188.5 -101t107 -154.5t35.5 -201q0 -231 -138.5 -345.5t-375.5 -114.5h-195v-242h-293zM421 500h185q134 0 182.5 51.5t48.5 157.5q0 41 -6.5 71.5t-27 61t-55 50t-93.5 31.5t-140 12h-94v-435z" />
<glyph unicode="&#xdf;" horiz-adv-x="1310" d="M128 0v1020q0 61 14 119.5t49 116.5t87 101t134.5 70t184.5 27q208 0 329.5 -94.5t121.5 -245.5q0 -108 -63.5 -191t-134.5 -106q32 -3 74 -16t94.5 -42.5t95 -69.5t71.5 -104t29 -139q0 -65 -17.5 -124.5t-63 -119.5t-115 -103.5t-182.5 -71t-257 -27.5v260 q89 0 154 13.5t99.5 33.5t55 49t25.5 52t5 52q0 85 -94 141t-245 56v227q8 1 20.5 2.5t44.5 13t57 28.5t45.5 52.5t20.5 81.5q1 44 -16.5 74.5t-45.5 43t-49.5 17t-42.5 4.5q-192 0 -192 -235v-966h-293z" />
<glyph unicode="&#xe0;" horiz-adv-x="1122" d="M63 324q0 68 21.5 129t64.5 112t117.5 81t171.5 30q141 0 297 -55v20q0 111 -45 154.5t-129 43.5q-164 0 -319 -98l-99 189q82 49 213 85t265 36q103 0 179 -27.5t120.5 -76.5t66 -111t21.5 -138v-698h-244q-23 54 -28 103q-48 -60 -125.5 -99t-172.5 -39 q-174 0 -274.5 106t-100.5 253zM233 1638h257l246 -297h-208zM344 344q0 -166 154 -166q55 0 121.5 27.5t115.5 78.5v162q-128 55 -237 55q-68 0 -111 -41.5t-43 -115.5z" />
<glyph unicode="&#xe1;" horiz-adv-x="1122" d="M63 324q0 68 21.5 129t64.5 112t117.5 81t171.5 30q141 0 297 -55v20q0 111 -45 154.5t-129 43.5q-164 0 -319 -98l-99 189q82 49 213 85t265 36q103 0 179 -27.5t120.5 -76.5t66 -111t21.5 -138v-698h-244q-23 54 -28 103q-48 -60 -125.5 -99t-172.5 -39 q-174 0 -274.5 106t-100.5 253zM344 344q0 -166 154 -166q55 0 121.5 27.5t115.5 78.5v162q-128 55 -237 55q-68 0 -111 -41.5t-43 -115.5zM458 1341l246 297h270l-308 -297h-208z" />
<glyph unicode="&#xe2;" horiz-adv-x="1122" d="M63 324q0 68 21.5 129t64.5 112t117.5 81t171.5 30q141 0 297 -55v20q0 111 -45 154.5t-129 43.5q-164 0 -319 -98l-99 189q82 49 213 85t265 36q103 0 179 -27.5t120.5 -76.5t66 -111t21.5 -138v-698h-244q-23 54 -28 103q-48 -60 -125.5 -99t-172.5 -39 q-174 0 -274.5 106t-100.5 253zM212 1341l239 297h245l239 -297h-195l-167 185l-166 -185h-195zM344 344q0 -166 154 -166q55 0 121.5 27.5t115.5 78.5v162q-128 55 -237 55q-68 0 -111 -41.5t-43 -115.5z" />
<glyph unicode="&#xe3;" horiz-adv-x="1122" d="M63 324q0 68 21.5 129t64.5 112t117.5 81t171.5 30q141 0 297 -55v20q0 111 -45 154.5t-129 43.5q-164 0 -319 -98l-99 189q82 49 213 85t265 36q103 0 179 -27.5t120.5 -76.5t66 -111t21.5 -138v-698h-244q-23 54 -28 103q-48 -60 -125.5 -99t-172.5 -39 q-174 0 -274.5 106t-100.5 253zM193 1412q30 71 65 116t69.5 65t78 22.5t81 -5.5t89.5 -27q58 -22 93.5 -33.5t66 -14t46 -0.5t33.5 20t28 35t30 55l78 -52q-19 -45 -38 -80t-36 -60.5t-37.5 -42t-37 -27.5t-41.5 -13.5t-43 -2.5t-48.5 7.5t-52 14t-59.5 19.5 q-20 6 -54 16.5t-48 14t-38.5 9t-36 3.5t-29 -5.5t-29 -14.5t-25.5 -27.5t-27 -40.5zM344 344q0 -166 154 -166q55 0 121.5 27.5t115.5 78.5v162q-128 55 -237 55q-68 0 -111 -41.5t-43 -115.5z" />
<glyph unicode="&#xe4;" horiz-adv-x="1122" d="M63 324q0 68 21.5 129t64.5 112t117.5 81t171.5 30q141 0 297 -55v20q0 111 -45 154.5t-129 43.5q-164 0 -319 -98l-99 189q82 49 213 85t265 36q103 0 179 -27.5t120.5 -76.5t66 -111t21.5 -138v-698h-244q-23 54 -28 103q-48 -60 -125.5 -99t-172.5 -39 q-174 0 -274.5 106t-100.5 253zM179 1525q0 62 43.5 104t106.5 42q62 0 104 -42t42 -104t-42 -105t-104 -43q-63 0 -106.5 43t-43.5 105zM344 344q0 -166 154 -166q55 0 121.5 27.5t115.5 78.5v162q-128 55 -237 55q-68 0 -111 -41.5t-43 -115.5zM651 1525q0 62 44 104 t105 42q63 0 105.5 -42t42.5 -104t-42.5 -105t-105.5 -43q-61 0 -105 43t-44 105z" />
<glyph unicode="&#xe5;" horiz-adv-x="1122" d="M63 324q0 68 21.5 129t64.5 112t117.5 81t171.5 30q141 0 297 -55v20q0 111 -45 154.5t-129 43.5q-164 0 -319 -98l-99 189q82 49 213 85t265 36q103 0 179 -27.5t120.5 -76.5t66 -111t21.5 -138v-698h-244q-23 54 -28 103q-48 -60 -125.5 -99t-172.5 -39 q-174 0 -274.5 106t-100.5 253zM344 344q0 -166 154 -166q55 0 121.5 27.5t115.5 78.5v162q-128 55 -237 55q-68 0 -111 -41.5t-43 -115.5zM369 1456q0 84 60.5 143.5t142.5 59.5t140.5 -59.5t58.5 -143.5t-58.5 -143.5t-140.5 -59.5t-142.5 60.5t-60.5 142.5zM486 1456 q0 -36 25 -61.5t61 -25.5t60.5 25.5t24.5 61.5t-24.5 61.5t-60.5 25.5t-61 -25.5t-25 -61.5z" />
<glyph unicode="&#xe6;" horiz-adv-x="1804" d="M80 324q0 69 19.5 129t60 111.5t113 81.5t169.5 30q148 0 308 -58l1 7q-4 124 -48 169t-125 45q-166 0 -320 -97l-99 189q82 48 213.5 83t265.5 35q201 0 302 -103q133 102 307 102q110 0 193.5 -33.5t136 -91.5t86 -143.5t46.5 -180.5t13 -213l-706 1q20 -95 78 -151 t151 -56q72 0 147 26.5t122 54.5l106 -187q-69 -48 -166.5 -79t-186.5 -31q-270 0 -414 187q-171 -185 -398 -185q-174 0 -274.5 105.5t-100.5 252.5zM361 345q0 -167 154 -167q61 0 135 34t122 95q-23 71 -29 144q-121 50 -228 50q-68 0 -111 -41t-43 -115zM1009 568h463 q-8 124 -62.5 192t-174.5 68q-103 0 -159.5 -70.5t-66.5 -189.5z" />
<glyph unicode="&#xe7;" horiz-adv-x="1019" d="M73 514q0 260 134 405.5t395 145.5q96 0 204.5 -36.5t166.5 -94.5l-93 -189q-47 38 -122 67t-152 29q-115 0 -180 -84t-65 -243t65 -243t180 -84q77 0 152 29t122 67l93 -189q-56 -56 -161.5 -92.5t-201.5 -38.5l-36 -86q27 21 69 21q64 0 100 -46t36 -112 q0 -78 -61 -131t-171 -53q-55 0 -122 18t-98 43l52 129q82 -65 177 -71q108 -6 108 67q0 59 -62 59q-43 0 -69 -30l-108 47l57 154q-202 32 -305.5 173t-103.5 369z" />
<glyph unicode="&#xe8;" horiz-adv-x="1128" d="M73 506q0 248 137.5 394.5t356.5 146.5q110 0 194.5 -31t139.5 -86.5t90 -139.5t49.5 -182t14.5 -222h-695q17 -96 71 -151.5t146 -55.5q125 0 267 81l96 -186q-69 -48 -166.5 -79.5t-186.5 -31.5q-106 0 -193 30.5t-146 82t-99 122t-58 147.5t-18 161zM223 1638h257 l246 -297h-208zM353 568h446q-6 126 -56 193t-170 67q-204 0 -220 -260z" />
<glyph unicode="&#xe9;" horiz-adv-x="1128" d="M73 506q0 248 137.5 394.5t356.5 146.5q110 0 194.5 -31t139.5 -86.5t90 -139.5t49.5 -182t14.5 -222h-695q17 -96 71 -151.5t146 -55.5q125 0 267 81l96 -186q-69 -48 -166.5 -79.5t-186.5 -31.5q-106 0 -193 30.5t-146 82t-99 122t-58 147.5t-18 161zM353 568h446 q-6 126 -56 193t-170 67q-204 0 -220 -260zM435 1341l246 297h270l-308 -297h-208z" />
<glyph unicode="&#xea;" horiz-adv-x="1128" d="M73 506q0 248 137.5 394.5t356.5 146.5q110 0 194.5 -31t139.5 -86.5t90 -139.5t49.5 -182t14.5 -222h-695q17 -96 71 -151.5t146 -55.5q125 0 267 81l96 -186q-69 -48 -166.5 -79.5t-186.5 -31.5q-106 0 -193 30.5t-146 82t-99 122t-58 147.5t-18 161zM211 1341l239 297 h245l239 -297h-195l-167 185l-166 -185h-195zM353 568h446q-6 126 -56 193t-170 67q-204 0 -220 -260z" />
<glyph unicode="&#xeb;" horiz-adv-x="1128" d="M73 506q0 248 137.5 394.5t356.5 146.5q110 0 194.5 -31t139.5 -86.5t90 -139.5t49.5 -182t14.5 -222h-695q17 -96 71 -151.5t146 -55.5q125 0 267 81l96 -186q-69 -48 -166.5 -79.5t-186.5 -31.5q-106 0 -193 30.5t-146 82t-99 122t-58 147.5t-18 161zM178 1525 q0 62 43.5 104t106.5 42q62 0 104 -42t42 -104t-42 -105t-104 -43q-63 0 -106.5 43t-43.5 105zM353 568h446q-6 126 -56 193t-170 67q-204 0 -220 -260zM650 1525q0 62 44 104t105 42q63 0 105.5 -42t42.5 -104t-42.5 -105t-105.5 -43q-61 0 -105 43t-44 105z" />
<glyph unicode="&#xec;" horiz-adv-x="557" d="M-120 1638h257l246 -297h-208zM139 0v1024h280v-1024h-280z" />
<glyph unicode="&#xed;" horiz-adv-x="557" d="M126 1341l245 297h270l-307 -297h-208zM139 0v1024h280v-1024h-280z" />
<glyph unicode="&#xee;" horiz-adv-x="557" d="M-78 1341l240 297h244l240 -297h-196l-166 185l-166 -185h-196zM139 0v1024h280v-1024h-280z" />
<glyph unicode="&#xef;" horiz-adv-x="557" d="M-111 1525q0 62 44 104t107 42q62 0 104 -42t42 -104t-42 -105t-104 -43q-63 0 -107 43t-44 105zM139 0v1024h280v-1024h-280zM362 1525q0 62 44 104t105 42q63 0 105 -42t42 -104q0 -63 -42 -105.5t-105 -42.5q-61 0 -105 43t-44 105z" />
<glyph unicode="&#xf0;" horiz-adv-x="1214" d="M92 506q0 156 58 278.5t169 192.5q113 70 275 70q51 0 102 -8q-26 58 -73 119l-291 -71l-50 182l184 45q-63 47 -130 72l252 101q71 -40 146 -108l217 53l51 -182l-129 -31q103 -148 162 -330.5t61 -366.5q0 -261 -131 -410t-371 -149q-241 0 -371.5 148.5t-130.5 394.5z M385 506q0 -136 50 -213.5t159 -77.5q107 0 157 77.5t50 213.5q0 285 -207 285q-209 0 -209 -285z" />
<glyph unicode="&#xf1;" d="M123 0v1024h250q17 -33 27 -137q64 71 165.5 117.5t204.5 46.5q171 0 260.5 -103t89.5 -270v-678h-280v593q0 103 -40.5 157.5t-104.5 57t-140.5 -32t-150.5 -101.5v-674h-281zM241 1412q30 71 65 116t69.5 65t78 22.5t81 -5.5t89.5 -27q58 -22 93.5 -33.5t66 -14 t46 -0.5t33.5 20t28 35t30 55l78 -52q-17 -41 -33.5 -73t-34 -56.5t-32.5 -42.5t-34.5 -28.5t-35 -17.5t-38.5 -7.5t-39.5 1t-44.5 8.5t-48 13.5t-54 17.5q-19 6 -48.5 14.5t-43.5 13t-36 9.5t-33 5.5t-27.5 -0.5t-27 -7.5t-23.5 -16.5t-24 -26t-23 -37z" />
<glyph unicode="&#xf2;" horiz-adv-x="1173" d="M73 506q0 255 143.5 398t371.5 143q241 0 376.5 -148.5t135.5 -392.5q0 -245 -135.5 -394t-376.5 -149q-243 0 -379 149t-136 394zM213 1638h257l245 -297h-208zM356 506q0 -141 58.5 -229.5t173.5 -88.5q113 0 171 88.5t58 229.5q0 140 -57.5 226.5t-171.5 86.5 q-115 0 -173.5 -86.5t-58.5 -226.5z" />
<glyph unicode="&#xf3;" horiz-adv-x="1173" d="M73 506q0 255 143.5 398t371.5 143q241 0 376.5 -148.5t135.5 -392.5q0 -245 -135.5 -394t-376.5 -149q-243 0 -379 149t-136 394zM356 506q0 -141 58.5 -229.5t173.5 -88.5q113 0 171 88.5t58 229.5q0 140 -57.5 226.5t-171.5 86.5q-115 0 -173.5 -86.5t-58.5 -226.5z M457 1341l245 297h270l-307 -297h-208z" />
<glyph unicode="&#xf4;" horiz-adv-x="1173" d="M73 506q0 255 143.5 398t371.5 143q241 0 376.5 -148.5t135.5 -392.5q0 -245 -135.5 -394t-376.5 -149q-243 0 -379 149t-136 394zM231 1341l240 297h244l240 -297h-196l-166 185l-166 -185h-196zM356 506q0 -141 58.5 -229.5t173.5 -88.5q113 0 171 88.5t58 229.5 q0 140 -57.5 226.5t-171.5 86.5q-115 0 -173.5 -86.5t-58.5 -226.5z" />
<glyph unicode="&#xf5;" horiz-adv-x="1173" d="M73 506q0 255 143.5 398t371.5 143q241 0 376.5 -148.5t135.5 -392.5q0 -245 -135.5 -394t-376.5 -149q-243 0 -379 149t-136 394zM213 1412q30 71 65 116t69.5 65t78 22.5t81 -5.5t89.5 -27q58 -22 93.5 -33.5t66 -14t46 -0.5t33.5 20t28 35t30 55l78 -52 q-17 -41 -33.5 -73t-34 -56.5t-32.5 -42.5t-34.5 -28.5t-35 -17.5t-38.5 -7.5t-39.5 1t-44.5 8.5t-48 13.5t-54 17.5q-19 6 -48.5 14.5t-43.5 13t-36 9.5t-33 5.5t-27.5 -0.5t-27 -7.5t-23.5 -16.5t-24 -26t-23 -37zM356 506q0 -141 58.5 -229.5t173.5 -88.5q113 0 171 88.5 t58 229.5q0 140 -57.5 226.5t-171.5 86.5q-115 0 -173.5 -86.5t-58.5 -226.5z" />
<glyph unicode="&#xf6;" horiz-adv-x="1173" d="M73 506q0 255 143.5 398t371.5 143q241 0 376.5 -148.5t135.5 -392.5q0 -245 -135.5 -394t-376.5 -149q-243 0 -379 149t-136 394zM198 1525q0 62 44 104t107 42q62 0 104 -42t42 -104t-42 -105t-104 -43q-63 0 -107 43t-44 105zM356 506q0 -141 58.5 -229.5t173.5 -88.5 q113 0 171 88.5t58 229.5q0 140 -57.5 226.5t-171.5 86.5q-115 0 -173.5 -86.5t-58.5 -226.5zM670 1525q0 62 44.5 104t105.5 42q63 0 105 -42t42 -104q0 -63 -42 -105.5t-105 -42.5q-61 0 -105.5 43t-44.5 105z" />
<glyph unicode="&#xf7;" horiz-adv-x="1277" d="M127 518v234h1024v-234h-1024zM493 197q0 62 43 104t105 42t104 -42t42 -104t-42 -105t-104 -43t-105 43t-43 105zM493 1075q0 62 43 104t105 42t104 -42t42 -104t-42 -105t-104 -43t-105 43t-43 105z" />
<glyph unicode="&#xf8;" horiz-adv-x="1249" d="M107 506q0 255 143.5 398t371.5 143q85 0 159 -20l70 149h187l-104 -221q97 -70 148.5 -185.5t51.5 -263.5q0 -245 -135.5 -394t-376.5 -149q-76 0 -151 18l-74 -157h-187l107 225q-102 70 -156 188t-54 269zM390 506q0 -127 45 -208l244 514q-31 7 -57 7 q-115 0 -173.5 -86.5t-58.5 -226.5zM572 193q27 -5 50 -5q113 0 171 88.5t58 229.5q0 114 -39 194z" />
<glyph unicode="&#xf9;" d="M114 346v678h281v-593q0 -103 40.5 -157.5t104.5 -57t140.5 32t150.5 101.5v674h281v-1024h-250q-17 33 -27 137q-64 -71 -165.5 -117.5t-204.5 -46.5q-171 0 -261 103t-90 270zM242 1638h256l246 -297h-208z" />
<glyph unicode="&#xfa;" d="M114 346v678h281v-593q0 -103 40.5 -157.5t104.5 -57t140.5 32t150.5 101.5v674h281v-1024h-250q-17 33 -27 137q-64 -71 -165.5 -117.5t-204.5 -46.5q-171 0 -261 103t-90 270zM467 1341l246 297h270l-308 -297h-208z" />
<glyph unicode="&#xfb;" d="M114 346v678h281v-593q0 -103 40.5 -157.5t104.5 -57t140.5 32t150.5 101.5v674h281v-1024h-250q-17 33 -27 137q-64 -71 -165.5 -117.5t-204.5 -46.5q-171 0 -261 103t-90 270zM258 1341l239 297h245l239 -297h-195l-167 185l-166 -185h-195z" />
<glyph unicode="&#xfc;" d="M114 346v678h281v-593q0 -103 40.5 -157.5t104.5 -57t140.5 32t150.5 101.5v674h281v-1024h-250q-17 33 -27 137q-64 -71 -165.5 -117.5t-204.5 -46.5q-171 0 -261 103t-90 270zM225 1525q0 62 43.5 104t106.5 42q62 0 104 -42t42 -104t-42 -105t-104 -43 q-63 0 -106.5 43t-43.5 105zM697 1525q0 62 44 104t105 42q63 0 105.5 -42t42.5 -104t-42.5 -105t-105.5 -43q-61 0 -105 43t-44 105z" />
<glyph unicode="&#xfd;" horiz-adv-x="1181" d="M36 1024h304l250 -678l278 678h276l-473 -1120q-73 -180 -166 -268t-203.5 -92.5t-246.5 46.5l74 219q66 -30 109 -36t80 17t65 72t61 138zM506 1341l245 297h270l-307 -297h-208z" />
<glyph unicode="&#xfe;" horiz-adv-x="1232" d="M72 -410v1905h293v-542q126 108 283 108q146 0 249 -71.5t151.5 -192t48.5 -279.5q0 -158 -48.5 -278t-151.5 -191.5t-249 -71.5q-158 0 -283 112v-499h-293zM365 375q35 -77 97 -121t142 -44q101 0 148 83t47 225t-47 225t-148 83q-80 0 -142 -44t-97 -121v-286z" />
<glyph unicode="&#xff;" horiz-adv-x="1181" d="M36 1024h304l250 -678l278 678h276l-473 -1120q-73 -180 -166 -268t-203.5 -92.5t-246.5 46.5l74 219q66 -30 109 -36t80 17t65 72t61 138zM217 1525q0 62 44 104t107 42q62 0 104 -42t42 -104t-42 -105t-104 -43q-63 0 -107 43t-44 105zM690 1525q0 62 44 104t105 42 q63 0 105 -42t42 -104q0 -63 -42 -105.5t-105 -42.5q-61 0 -105 43t-44 105z" />
<glyph unicode="&#x152;" horiz-adv-x="2082" d="M104 717q0 150 46.5 279t134 227.5t225 154.5t309.5 56h1163v-273h-685v-300h628v-260h-628v-329h685v-272h-1163q-151 0 -280 46t-226.5 133.5t-153 225.5t-55.5 312zM407 717q0 -228 111 -342t322 -114h168v912h-168q-211 0 -322 -113t-111 -343z" />
<glyph unicode="&#x153;" horiz-adv-x="1945" d="M54 506q0 255 143.5 398t371.5 143q251 0 389 -163q137 163 371 163q110 0 194.5 -31t139.5 -86.5t90 -139.5t49.5 -182t14.5 -222h-695q17 -96 71 -151.5t146 -55.5q124 0 266 81l96 -186q-69 -48 -166 -79.5t-186 -31.5q-252 0 -390 165q-138 -165 -390 -165 q-243 0 -379 149t-136 394zM337 506q0 -141 58.5 -229.5t173.5 -88.5q113 0 171 88.5t58 229.5q0 140 -57.5 226.5t-171.5 86.5q-115 0 -173.5 -86.5t-58.5 -226.5zM1114 568h447q-6 126 -56 193t-170 67q-205 0 -221 -260z" />
<glyph unicode="&#x178;" horiz-adv-x="1396" d="M12 1434h319l368 -571l367 571h319l-540 -828v-606h-293v606zM309 1730q0 62 43.5 104t106.5 42q62 0 104 -42t42 -104t-42 -105t-104 -43q-63 0 -106.5 43t-43.5 105zM781 1730q0 62 44.5 104t105.5 42q63 0 105 -42t42 -104q0 -63 -42 -105.5t-105 -42.5 q-61 0 -105.5 43t-44.5 105z" />
<glyph unicode="&#x2c6;" horiz-adv-x="722" d="M0 1341l239 297h245l239 -297h-195l-167 185l-166 -185h-195z" />
<glyph unicode="&#x2dc;" horiz-adv-x="757" d="M0 1412q30 71 65 116t69.5 65t78 22.5t81 -5.5t89.5 -27q58 -22 93.5 -33.5t66 -14t46 -0.5t33.5 20t28 35t30 55l78 -52q-19 -45 -38 -80t-36 -60.5t-37.5 -42t-37 -27.5t-41.5 -13.5t-43 -2.5t-48.5 7.5t-52 14t-59.5 19.5q-20 6 -54 16.5t-48 14t-38.5 9t-36 3.5 t-29 -5.5t-29 -14.5t-25.5 -27.5t-27 -40.5z" />
<glyph unicode="&#x2000;" horiz-adv-x="938" />
<glyph unicode="&#x2001;" horiz-adv-x="1876" />
<glyph unicode="&#x2002;" horiz-adv-x="938" />
<glyph unicode="&#x2003;" horiz-adv-x="1876" />
<glyph unicode="&#x2004;" horiz-adv-x="625" />
<glyph unicode="&#x2005;" horiz-adv-x="469" />
<glyph unicode="&#x2006;" horiz-adv-x="312" />
<glyph unicode="&#x2007;" horiz-adv-x="312" />
<glyph unicode="&#x2008;" horiz-adv-x="234" />
<glyph unicode="&#x2009;" horiz-adv-x="375" />
<glyph unicode="&#x200a;" horiz-adv-x="104" />
<glyph unicode="&#x2010;" horiz-adv-x="700" d="M94 386v235h512v-235h-512z" />
<glyph unicode="&#x2011;" horiz-adv-x="700" d="M94 386v235h512v-235h-512z" />
<glyph unicode="&#x2012;" horiz-adv-x="700" d="M94 386v235h512v-235h-512z" />
<glyph unicode="&#x2013;" horiz-adv-x="1110" d="M94 386v235h921v-235h-921z" />
<glyph unicode="&#x2014;" horiz-adv-x="1646" d="M94 386v235h1458v-235h-1458z" />
<glyph unicode="&#x2018;" horiz-adv-x="458" d="M102 1217q0 48 35 116t100 167h83l-56 -137q56 -5 94 -46t38 -100q0 -62 -43 -104t-105 -42t-104 42t-42 104z" />
<glyph unicode="&#x2019;" horiz-adv-x="458" d="M63 1354q0 62 43 104t105 42t104 -42t42 -104q0 -48 -35 -116t-100 -167h-83l56 137q-56 5 -94 46t-38 100z" />
<glyph unicode="&#x201c;" horiz-adv-x="827" d="M102 1217q0 43 38 120.5t97 162.5h83l-56 -137q56 -5 94 -46t38 -100q0 -62 -43 -104t-105 -42t-104 42t-42 104zM470 1217q0 43 38 120.5t97 162.5h83l-56 -137q56 -5 94 -46t38 -100q0 -62 -43 -104t-105 -42t-104 42t-42 104z" />
<glyph unicode="&#x201d;" horiz-adv-x="827" d="M63 1358q0 62 43 104t105 42t104 -42t42 -104q0 -79 -135 -283h-83l56 137q-56 5 -94 46t-38 100zM431 1358q0 62 43 104t105 42t104 -42t42 -104q0 -79 -135 -283h-83l56 137q-57 5 -94.5 46t-37.5 100z" />
<glyph unicode="&#x2022;" horiz-adv-x="948" d="M184 657q0 119 86.5 204t204.5 85q119 0 203.5 -85t84.5 -204q0 -118 -84.5 -204t-203.5 -86q-118 0 -204.5 86t-86.5 204z" />
<glyph unicode="&#x2026;" horiz-adv-x="1382" d="M109 128q0 62 43.5 104.5t105.5 42.5q63 0 104.5 -42t41.5 -105t-41.5 -105.5t-104.5 -42.5q-62 0 -105.5 43t-43.5 105zM545 128q0 62 43 104.5t105 42.5t104 -42.5t42 -104.5t-42 -105t-104 -43t-105 43t-43 105zM978 128q0 62 43 104.5t105 42.5t104.5 -42.5 t42.5 -104.5t-42.5 -105t-104.5 -43t-105 43t-43 105z" />
<glyph unicode="&#x202f;" horiz-adv-x="375" />
<glyph unicode="&#x2039;" horiz-adv-x="675" d="M73 510l338 461l183 -122l-229 -339l229 -346l-183 -121z" />
<glyph unicode="&#x203a;" horiz-adv-x="675" d="M81 164l229 346l-229 339l183 122l338 -461l-338 -467z" />
<glyph unicode="&#x205f;" horiz-adv-x="469" />
<glyph unicode="&#x20ac;" horiz-adv-x="1222" d="M87 446v194h167q-3 37 -3 77q0 39 3 77h-167v194h200q36 123 105.5 217.5t158 150.5t192.5 84.5t211.5 26t212.5 -32.5l-39 -251q-75 25 -151.5 27t-148.5 -18.5t-133.5 -72.5t-98.5 -131h354l-25 -194h-378q-3 -38 -3 -77q0 -41 3 -77h358l-23 -194h-286 q37 -79 98.5 -131t134 -72t148.5 -18t151 26l39 -251q-103 -29 -209.5 -32t-211 25.5t-194 84t-159.5 150.5t-106 218h-200z" />
<glyph unicode="&#x2122;" horiz-adv-x="716" d="M76 1382v52h215v-52h-81v-235h-50v235h-84zM349 1147v295l141 -144l139 144v-295h-53v169l-86 -88l-88 87v-168h-53z" />
<glyph unicode="&#x25fc;" horiz-adv-x="1025" d="M0 0v1025h1025v-1025h-1025z" />
<glyph unicode="&#xfb01;" horiz-adv-x="1157" d="M55 797v227h147v18q-1 83 5 144.5t22 115.5t42.5 89.5t70 62.5t101 38.5t138 13t179.5 -8.5t227 -31v-262q-129 23 -209 34t-140 7.5t-88.5 -12t-45.5 -42.5t-19.5 -66.5t-2.5 -100.5h505v-1024h-280v797h-225v-797h-280v797h-147z" />
<glyph unicode="&#xfb02;" horiz-adv-x="1118" d="M55 797v227h147v18q-1 85 4 146.5t19 120t39 96t66 68t99 42.5t138 13.5t182.5 -12t232.5 -41.5h3v-1475h-278v1250q-39 8 -67.5 12t-52.5 4t-39.5 -4.5t-28 -13.5t-19 -23.5t-11 -34t-5.5 -44.5t-2 -55.5t0 -66.5h114v-227h-114v-797h-280v797h-147z" />
<glyph unicode="&#xfb03;" horiz-adv-x="1695" d="M55 798v226h147v19q-1 106 8.5 182t33.5 132t61 88t94.5 46.5t129.5 11t170 -21.5v-262q-40 10 -66.5 15.5t-51 8t-38 0t-27 -8.5t-18 -18.5t-10.5 -29.5t-5 -41t-1.5 -53.5t0.5 -67.5h303v18q-1 96 7 163.5t28.5 126t59 93t95.5 57.5t142 25.5t194.5 -8t255.5 -36.5 v-261q-128 26 -209.5 38.5t-140 9t-87.5 -12t-44.5 -44.5t-18 -68t-2.5 -101h502v-1024h-280v798h-222v-798h-280v798h-303v-798h-280v798h-147z" />
</font>
</defs>
</svg>
