<svg id="Layer_1" data-name="Layer 1" xmlns="http://www.w3.org/2000/svg" viewBox="0 0 2956.58 597.96"><defs><style>.cls-1{fill:#00bf67;}</style></defs><title>logotype_horiz</title><path d="M138.2,139.59c2,4,4,12.43,5.4,23.46,21.7-19.82,45-29.73,69.79-29.73,30.13,0,50.67,11.15,61.35,33.69,22.77-22.38,48.82-33.69,78.43-33.69,47.72,0,71.82,29.4,71.82,87.72V380.59H347.87V224.91c0-7.71-1.45-23.14-18.32-23.14-14.17,0-30,5.48-44.34,17.26V380.59H208.09V224.91c0-7.71-1.93-23.14-18.32-23.14-14.43,0-30.08,5.63-44.34,16v162.8H68.31v-241H138.2Z" transform="translate(-68.31 -133.33)"/><path d="M1143.12,139.59c1.9,4.44,3.8,12.84,5.29,26.29,27-26.25,59.88-42.74,93.52-20l-20.72,62.66c-21.13-14.71-47-12.59-70.86,11.21V380.59h-77.12v-241h69.89Z" transform="translate(-68.31 -133.33)"/><path d="M1575.45,139.59c1.9,4.44,3.8,12.84,5.29,26.29,27-26.25,59.88-42.74,93.52-20l-20.72,62.66c-21.13-14.71-47-12.59-70.86,11.21V380.59h-77.12v-241h69.89Z" transform="translate(-68.31 -133.33)"/><path d="M2158.64,261.54c0,75.19-45.31,127.73-122.43,127.73-77.6,0-122.91-52.54-122.91-127.73,0-82.42,53.5-127.25,122.91-127.25C2113.33,134.29,2158.64,186.35,2158.64,261.54Zm-168.22,0c0,35.19,14,63.14,45.79,63.14,31.33,0,45.31-28,45.31-63.14s-14-62.18-45.31-62.18C2004.4,199.36,1990.42,226.35,1990.42,261.54Z" transform="translate(-68.31 -133.33)"/><path d="M2498.9,139.59c1.9,4.44,3.8,12.84,5.29,26.29,27-26.25,59.88-42.74,93.52-20L2577,208.52c-21.13-14.71-47-12.59-70.86,11.21V380.59H2429v-241h69.89Z" transform="translate(-68.31 -133.33)"/><path d="M3024.89,481.61v241h-77.12V559.82c-14.26-10.39-29.91-16-44.35-16-16.39,0-18.31,15.42-18.31,23.14V722.61H2808V561.05c-14.36-11.78-30.17-17.26-44.34-17.26-16.87,0-18.32,15.42-18.32,23.14V722.61h-77.12V563.07c0-58.32,24.1-87.72,71.82-87.72,29.61,0,55.66,11.32,78.43,33.69,10.68-22.54,31.22-33.69,61.35-33.69,24.75,0,48.08,9.91,69.79,29.73,1.4-11,3.4-19.45,5.4-23.46h69.89Z" transform="translate(-68.31 -133.33)"/><path d="M2306.74,722.61v-241h77.12v241h-77.12Z" transform="translate(-68.31 -133.33)"/><path d="M740,377.46v-241h77.12v241H740Z" transform="translate(-68.31 -133.33)"/><path d="M2020,481.61v241h-77.12V561.75c-23.88-23.81-49.73-25.93-70.86-11.21l-20.72-62.66c33.64-22.72,66.49-6.23,93.52,20,1.49-13.45,3.39-21.85,5.29-26.29H2020Z" transform="translate(-68.31 -133.33)"/><path d="M1584.06,481.61v241h-80.52V561.75c-23.88-23.81-49.73-25.93-70.86-11.21L1412,487.88c33.64-22.72,66.49-6.23,93.52,20,1.49-13.45,3.39-21.85,5.29-26.29h73.29Z" transform="translate(-68.31 -133.33)"/><path d="M1057,476.31c69.41,0,122.91,44.83,122.91,127.25,0,75.19-45.31,127.73-122.91,127.73-77.12,0-122.43-52.54-122.43-127.73S979.86,476.31,1057,476.31Zm0,65.07c-31.33,0-45.31,27-45.31,62.18s14,63.14,45.31,63.14c31.81,0,45.79-28,45.79-63.14S1088.8,541.38,1057,541.38Z" transform="translate(-68.31 -133.33)"/><path d="M664.19,481.61v241H587.07V561.75c-23.88-23.81-49.73-25.93-70.86-11.21l-20.72-62.66c33.64-22.72,66.49-6.23,93.52,20,1.49-13.45,3.39-21.85,5.29-26.29h69.89Z" transform="translate(-68.31 -133.33)"/><polygon class="cls-1" points="1726.96 503.63 1648.88 503.63 1687.92 425.54 1726.96 503.63"/><polygon class="cls-1" points="1321.74 176.57 1243.66 176.57 1282.7 98.49 1321.74 176.57"/></svg>